ISO-10303-21;
HEADER;
/* Generated by software containing ST-Developer
 * from STEP Tools, Inc. (www.steptools.com) 
 */

FILE_DESCRIPTION(
/* description */ (''),
/* implementation_level */ '2;1');

FILE_NAME(
/* name */ 'AOM-5024L-HD-F-R.ipt.step',
/* time_stamp */ '2024-02-07T22:20:35-05:00',
/* author */ ('vandenbroek'),
/* organization */ (''),
/* preprocessor_version */ 'ST-DEVELOPER v20',
/* originating_system */ 'Autodesk Inventor 2024',
/* authorisation */ '');

FILE_SCHEMA (('AUTOMOTIVE_DESIGN { 1 0 10303 214 3 1 1 }'));
ENDSEC;

DATA;
#10=MECHANICAL_DESIGN_GEOMETRIC_PRESENTATION_REPRESENTATION('',(#261,#262,
#263,#264,#265,#266,#267,#268,#269,#270,#271,#272,#273,#274,#275,#276,#277,
#278,#279,#280,#281,#282,#283,#284,#285,#286,#287,#288,#289,#290,#291,#292,
#293,#294,#295,#296,#297,#298,#299,#300,#301,#302,#303,#304),#1905);
#11=SHAPE_REPRESENTATION_RELATIONSHIP('SRR','None',#1912,#12);
#12=ADVANCED_BREP_SHAPE_REPRESENTATION('',(#13,#14),#1904);
#13=MANIFOLD_SOLID_BREP('Solid1',#1107);
#14=MANIFOLD_SOLID_BREP('Solid2',#1108);
#15=(
BOUNDED_SURFACE()
B_SPLINE_SURFACE(2,2,((#1617,#1618,#1619,#1620,#1621),(#1622,#1623,#1624,
#1625,#1626),(#1627,#1628,#1629,#1630,#1631)),.UNSPECIFIED.,.F.,.F.,.F.)
B_SPLINE_SURFACE_WITH_KNOTS((3,3),(3,2,3),(0.263022202908469,1.5707963267949),
(-3.14159265358979,-1.5707963267949,-2.42007681055262E-15),
 .UNSPECIFIED.)
GEOMETRIC_REPRESENTATION_ITEM()
RATIONAL_B_SPLINE_SURFACE(((1.,0.707106781186548,1.,0.707106781186548,1.),
(0.793725393319376,0.561248608016091,0.793725393319376,0.561248608016091,
0.793725393319376),(1.,0.707106781186548,1.,0.707106781186548,1.)))
REPRESENTATION_ITEM('')
SURFACE()
);
#16=(
BOUNDED_SURFACE()
B_SPLINE_SURFACE(2,2,((#1669,#1670,#1671,#1672,#1673),(#1674,#1675,#1676,
#1677,#1678),(#1679,#1680,#1681,#1682,#1683)),.UNSPECIFIED.,.F.,.F.,.F.)
B_SPLINE_SURFACE_WITH_KNOTS((3,3),(3,2,3),(0.263022202908469,1.5707963267949),
(-3.14159265358979,-1.5707963267949,-7.07697106182772E-16),
 .UNSPECIFIED.)
GEOMETRIC_REPRESENTATION_ITEM()
RATIONAL_B_SPLINE_SURFACE(((1.,0.707106781186548,1.,0.707106781186548,1.),
(0.793725393319374,0.561248608016089,0.793725393319374,0.561248608016089,
0.793725393319374),(1.,0.707106781186548,1.,0.707106781186548,1.)))
REPRESENTATION_ITEM('')
SURFACE()
);
#17=ELLIPSE('',#1148,0.707106781186547,0.5);
#18=ELLIPSE('',#1154,0.707106781186548,0.5);
#19=ELLIPSE('',#1157,0.707106781186547,0.5);
#20=ELLIPSE('',#1158,0.707106781186548,0.5);
#21=LINE('',#1596,#93);
#22=LINE('',#1606,#94);
#23=LINE('',#1613,#95);
#24=LINE('',#1616,#96);
#25=LINE('',#1641,#97);
#26=LINE('',#1642,#98);
#27=LINE('',#1644,#99);
#28=LINE('',#1645,#100);
#29=LINE('',#1651,#101);
#30=LINE('',#1654,#102);
#31=LINE('',#1657,#103);
#32=LINE('',#1660,#104);
#33=LINE('',#1663,#105);
#34=LINE('',#1668,#106);
#35=LINE('',#1689,#107);
#36=LINE('',#1694,#108);
#37=LINE('',#1696,#109);
#38=LINE('',#1698,#110);
#39=LINE('',#1700,#111);
#40=LINE('',#1702,#112);
#41=LINE('',#1704,#113);
#42=LINE('',#1706,#114);
#43=LINE('',#1708,#115);
#44=LINE('',#1710,#116);
#45=LINE('',#1712,#117);
#46=LINE('',#1714,#118);
#47=LINE('',#1715,#119);
#48=LINE('',#1720,#120);
#49=LINE('',#1722,#121);
#50=LINE('',#1724,#122);
#51=LINE('',#1726,#123);
#52=LINE('',#1728,#124);
#53=LINE('',#1730,#125);
#54=LINE('',#1732,#126);
#55=LINE('',#1734,#127);
#56=LINE('',#1736,#128);
#57=LINE('',#1738,#129);
#58=LINE('',#1740,#130);
#59=LINE('',#1741,#131);
#60=LINE('',#1743,#132);
#61=LINE('',#1744,#133);
#62=LINE('',#1746,#134);
#63=LINE('',#1748,#135);
#64=LINE('',#1750,#136);
#65=LINE('',#1752,#137);
#66=LINE('',#1754,#138);
#67=LINE('',#1756,#139);
#68=LINE('',#1758,#140);
#69=LINE('',#1760,#141);
#70=LINE('',#1762,#142);
#71=LINE('',#1764,#143);
#72=LINE('',#1772,#144);
#73=LINE('',#1857,#145);
#74=LINE('',#1859,#146);
#75=LINE('',#1861,#147);
#76=LINE('',#1863,#148);
#77=LINE('',#1865,#149);
#78=LINE('',#1867,#150);
#79=LINE('',#1869,#151);
#80=LINE('',#1871,#152);
#81=LINE('',#1873,#153);
#82=LINE('',#1875,#154);
#83=LINE('',#1877,#155);
#84=LINE('',#1879,#156);
#85=LINE('',#1881,#157);
#86=LINE('',#1883,#158);
#87=LINE('',#1885,#159);
#88=LINE('',#1887,#160);
#89=LINE('',#1889,#161);
#90=LINE('',#1891,#162);
#91=LINE('',#1893,#163);
#92=LINE('',#1898,#164);
#93=VECTOR('',#1276,4.85);
#94=VECTOR('',#1289,4.47213595499958);
#95=VECTOR('',#1296,0.5);
#96=VECTOR('',#1299,10.);
#97=VECTOR('',#1310,10.);
#98=VECTOR('',#1311,0.5);
#99=VECTOR('',#1314,10.);
#100=VECTOR('',#1315,0.5);
#101=VECTOR('',#1320,0.5);
#102=VECTOR('',#1323,10.);
#103=VECTOR('',#1326,0.5);
#104=VECTOR('',#1329,0.5);
#105=VECTOR('',#1332,10.);
#106=VECTOR('',#1339,10.);
#107=VECTOR('',#1346,3.97213595499958);
#108=VECTOR('',#1351,10.);
#109=VECTOR('',#1352,10.);
#110=VECTOR('',#1353,10.);
#111=VECTOR('',#1354,10.);
#112=VECTOR('',#1355,10.);
#113=VECTOR('',#1356,10.);
#114=VECTOR('',#1357,10.);
#115=VECTOR('',#1358,10.);
#116=VECTOR('',#1359,10.);
#117=VECTOR('',#1360,10.);
#118=VECTOR('',#1361,10.);
#119=VECTOR('',#1362,10.);
#120=VECTOR('',#1367,10.);
#121=VECTOR('',#1368,10.);
#122=VECTOR('',#1369,10.);
#123=VECTOR('',#1370,10.);
#124=VECTOR('',#1371,10.);
#125=VECTOR('',#1372,10.);
#126=VECTOR('',#1373,10.);
#127=VECTOR('',#1374,10.);
#128=VECTOR('',#1375,10.);
#129=VECTOR('',#1376,10.);
#130=VECTOR('',#1377,10.);
#131=VECTOR('',#1378,10.);
#132=VECTOR('',#1381,10.);
#133=VECTOR('',#1382,10.);
#134=VECTOR('',#1385,10.);
#135=VECTOR('',#1388,10.);
#136=VECTOR('',#1391,10.);
#137=VECTOR('',#1394,10.);
#138=VECTOR('',#1397,10.);
#139=VECTOR('',#1400,10.);
#140=VECTOR('',#1403,10.);
#141=VECTOR('',#1406,10.);
#142=VECTOR('',#1409,10.);
#143=VECTOR('',#1412,10.);
#144=VECTOR('',#1423,4.47213595499958);
#145=VECTOR('',#1514,0.2);
#146=VECTOR('',#1517,0.2);
#147=VECTOR('',#1520,0.2);
#148=VECTOR('',#1523,0.2);
#149=VECTOR('',#1526,0.2);
#150=VECTOR('',#1529,0.2);
#151=VECTOR('',#1532,0.2);
#152=VECTOR('',#1535,0.2);
#153=VECTOR('',#1538,0.2);
#154=VECTOR('',#1541,0.2);
#155=VECTOR('',#1544,0.2);
#156=VECTOR('',#1547,0.2);
#157=VECTOR('',#1550,0.2);
#158=VECTOR('',#1553,0.2);
#159=VECTOR('',#1556,0.2);
#160=VECTOR('',#1559,0.2);
#161=VECTOR('',#1562,0.2);
#162=VECTOR('',#1565,0.2);
#163=VECTOR('',#1568,0.2);
#164=VECTOR('',#1573,4.35);
#165=CYLINDRICAL_SURFACE('',#1138,4.85);
#166=CYLINDRICAL_SURFACE('',#1145,4.47213595499958);
#167=CYLINDRICAL_SURFACE('',#1147,0.5);
#168=CYLINDRICAL_SURFACE('',#1153,0.5);
#169=CYLINDRICAL_SURFACE('',#1155,0.5);
#170=CYLINDRICAL_SURFACE('',#1156,0.5);
#171=CYLINDRICAL_SURFACE('',#1161,0.5);
#172=CYLINDRICAL_SURFACE('',#1163,0.5);
#173=CYLINDRICAL_SURFACE('',#1166,3.97213595499958);
#174=CYLINDRICAL_SURFACE('',#1187,4.47213595499958);
#175=CYLINDRICAL_SURFACE('',#1232,0.2);
#176=CYLINDRICAL_SURFACE('',#1233,0.2);
#177=CYLINDRICAL_SURFACE('',#1234,0.2);
#178=CYLINDRICAL_SURFACE('',#1235,0.2);
#179=CYLINDRICAL_SURFACE('',#1236,0.2);
#180=CYLINDRICAL_SURFACE('',#1237,0.2);
#181=CYLINDRICAL_SURFACE('',#1238,0.2);
#182=CYLINDRICAL_SURFACE('',#1239,0.2);
#183=CYLINDRICAL_SURFACE('',#1240,0.2);
#184=CYLINDRICAL_SURFACE('',#1241,0.2);
#185=CYLINDRICAL_SURFACE('',#1242,0.2);
#186=CYLINDRICAL_SURFACE('',#1243,0.2);
#187=CYLINDRICAL_SURFACE('',#1244,0.2);
#188=CYLINDRICAL_SURFACE('',#1245,0.2);
#189=CYLINDRICAL_SURFACE('',#1246,0.2);
#190=CYLINDRICAL_SURFACE('',#1247,0.2);
#191=CYLINDRICAL_SURFACE('',#1248,0.2);
#192=CYLINDRICAL_SURFACE('',#1249,0.2);
#193=CYLINDRICAL_SURFACE('',#1250,0.2);
#194=CYLINDRICAL_SURFACE('',#1251,4.35);
#195=FACE_BOUND('',#365,.T.);
#196=FACE_BOUND('',#380,.T.);
#197=FACE_BOUND('',#381,.T.);
#198=FACE_BOUND('',#382,.T.);
#199=FACE_BOUND('',#398,.T.);
#200=FACE_BOUND('',#402,.T.);
#201=FACE_BOUND('',#403,.T.);
#202=FACE_BOUND('',#404,.T.);
#203=FACE_BOUND('',#405,.T.);
#204=FACE_BOUND('',#406,.T.);
#205=FACE_BOUND('',#407,.T.);
#206=FACE_BOUND('',#408,.T.);
#207=FACE_BOUND('',#409,.T.);
#208=FACE_BOUND('',#410,.T.);
#209=FACE_BOUND('',#411,.T.);
#210=FACE_BOUND('',#412,.T.);
#211=FACE_BOUND('',#413,.T.);
#212=FACE_BOUND('',#414,.T.);
#213=FACE_BOUND('',#415,.T.);
#214=FACE_BOUND('',#416,.T.);
#215=FACE_BOUND('',#417,.T.);
#216=FACE_BOUND('',#418,.T.);
#217=FACE_BOUND('',#419,.T.);
#218=FACE_BOUND('',#420,.T.);
#219=FACE_BOUND('',#423,.T.);
#220=FACE_BOUND('',#424,.T.);
#221=FACE_BOUND('',#425,.T.);
#222=FACE_BOUND('',#426,.T.);
#223=FACE_BOUND('',#427,.T.);
#224=FACE_BOUND('',#428,.T.);
#225=FACE_BOUND('',#429,.T.);
#226=FACE_BOUND('',#430,.T.);
#227=FACE_BOUND('',#431,.T.);
#228=FACE_BOUND('',#432,.T.);
#229=FACE_BOUND('',#433,.T.);
#230=FACE_BOUND('',#434,.T.);
#231=FACE_BOUND('',#435,.T.);
#232=FACE_BOUND('',#436,.T.);
#233=FACE_BOUND('',#437,.T.);
#234=FACE_BOUND('',#438,.T.);
#235=FACE_BOUND('',#439,.T.);
#236=FACE_BOUND('',#440,.T.);
#237=FACE_BOUND('',#441,.T.);
#238=PLANE('',#1136);
#239=PLANE('',#1159);
#240=PLANE('',#1169);
#241=PLANE('',#1170);
#242=PLANE('',#1171);
#243=PLANE('',#1172);
#244=PLANE('',#1173);
#245=PLANE('',#1174);
#246=PLANE('',#1175);
#247=PLANE('',#1176);
#248=PLANE('',#1177);
#249=PLANE('',#1178);
#250=PLANE('',#1179);
#251=PLANE('',#1180);
#252=PLANE('',#1181);
#253=PLANE('',#1182);
#254=PLANE('',#1183);
#255=PLANE('',#1184);
#256=PLANE('',#1185);
#257=PLANE('',#1189);
#258=PLANE('',#1212);
#259=PLANE('',#1254);
#260=PLANE('',#1255);
#261=STYLED_ITEM('',(#1922),#1050);
#262=STYLED_ITEM('',(#1922),#1051);
#263=STYLED_ITEM('',(#1923),#1054);
#264=STYLED_ITEM('',(#1923),#1055);
#265=STYLED_ITEM('',(#1923),#1056);
#266=STYLED_ITEM('',(#1923),#1057);
#267=STYLED_ITEM('',(#1923),#1058);
#268=STYLED_ITEM('',(#1923),#1059);
#269=STYLED_ITEM('',(#1923),#1060);
#270=STYLED_ITEM('',(#1923),#1061);
#271=STYLED_ITEM('',(#1923),#1062);
#272=STYLED_ITEM('',(#1924),#1064);
#273=STYLED_ITEM('',(#1923),#1065);
#274=STYLED_ITEM('',(#1925),#1066);
#275=STYLED_ITEM('',(#1926),#1079);
#276=STYLED_ITEM('',(#1927),#1080);
#277=STYLED_ITEM('',(#1922),#1081);
#278=STYLED_ITEM('',(#1922),#1082);
#279=STYLED_ITEM('',(#1922),#1083);
#280=STYLED_ITEM('',(#1922),#1084);
#281=STYLED_ITEM('',(#1922),#1085);
#282=STYLED_ITEM('',(#1922),#1086);
#283=STYLED_ITEM('',(#1922),#1087);
#284=STYLED_ITEM('',(#1922),#1088);
#285=STYLED_ITEM('',(#1922),#1089);
#286=STYLED_ITEM('',(#1922),#1090);
#287=STYLED_ITEM('',(#1922),#1091);
#288=STYLED_ITEM('',(#1922),#1092);
#289=STYLED_ITEM('',(#1922),#1093);
#290=STYLED_ITEM('',(#1922),#1094);
#291=STYLED_ITEM('',(#1922),#1095);
#292=STYLED_ITEM('',(#1922),#1096);
#293=STYLED_ITEM('',(#1922),#1097);
#294=STYLED_ITEM('',(#1922),#1098);
#295=STYLED_ITEM('',(#1922),#1099);
#296=STYLED_ITEM('',(#1922),#1100);
#297=STYLED_ITEM('',(#1922),#1101);
#298=STYLED_ITEM('',(#1922),#1102);
#299=STYLED_ITEM('',(#1922),#1103);
#300=STYLED_ITEM('',(#1921),#13);
#301=STYLED_ITEM('',(#1927),#1104);
#302=STYLED_ITEM('',(#1927),#1105);
#303=STYLED_ITEM('',(#1927),#1106);
#304=STYLED_ITEM('',(#1921),#14);
#305=FACE_OUTER_BOUND('',#363,.T.);
#306=FACE_OUTER_BOUND('',#364,.T.);
#307=FACE_OUTER_BOUND('',#366,.T.);
#308=FACE_OUTER_BOUND('',#367,.T.);
#309=FACE_OUTER_BOUND('',#368,.T.);
#310=FACE_OUTER_BOUND('',#369,.T.);
#311=FACE_OUTER_BOUND('',#370,.T.);
#312=FACE_OUTER_BOUND('',#371,.T.);
#313=FACE_OUTER_BOUND('',#372,.T.);
#314=FACE_OUTER_BOUND('',#373,.T.);
#315=FACE_OUTER_BOUND('',#374,.T.);
#316=FACE_OUTER_BOUND('',#375,.T.);
#317=FACE_OUTER_BOUND('',#376,.T.);
#318=FACE_OUTER_BOUND('',#377,.T.);
#319=FACE_OUTER_BOUND('',#378,.T.);
#320=FACE_OUTER_BOUND('',#379,.T.);
#321=FACE_OUTER_BOUND('',#383,.T.);
#322=FACE_OUTER_BOUND('',#384,.T.);
#323=FACE_OUTER_BOUND('',#385,.T.);
#324=FACE_OUTER_BOUND('',#386,.T.);
#325=FACE_OUTER_BOUND('',#387,.T.);
#326=FACE_OUTER_BOUND('',#388,.T.);
#327=FACE_OUTER_BOUND('',#389,.T.);
#328=FACE_OUTER_BOUND('',#390,.T.);
#329=FACE_OUTER_BOUND('',#391,.T.);
#330=FACE_OUTER_BOUND('',#392,.T.);
#331=FACE_OUTER_BOUND('',#393,.T.);
#332=FACE_OUTER_BOUND('',#394,.T.);
#333=FACE_OUTER_BOUND('',#395,.T.);
#334=FACE_OUTER_BOUND('',#396,.T.);
#335=FACE_OUTER_BOUND('',#397,.T.);
#336=FACE_OUTER_BOUND('',#399,.T.);
#337=FACE_OUTER_BOUND('',#400,.T.);
#338=FACE_OUTER_BOUND('',#401,.T.);
#339=FACE_OUTER_BOUND('',#421,.T.);
#340=FACE_OUTER_BOUND('',#422,.T.);
#341=FACE_OUTER_BOUND('',#442,.T.);
#342=FACE_OUTER_BOUND('',#443,.T.);
#343=FACE_OUTER_BOUND('',#444,.T.);
#344=FACE_OUTER_BOUND('',#445,.T.);
#345=FACE_OUTER_BOUND('',#446,.T.);
#346=FACE_OUTER_BOUND('',#447,.T.);
#347=FACE_OUTER_BOUND('',#448,.T.);
#348=FACE_OUTER_BOUND('',#449,.T.);
#349=FACE_OUTER_BOUND('',#450,.T.);
#350=FACE_OUTER_BOUND('',#451,.T.);
#351=FACE_OUTER_BOUND('',#452,.T.);
#352=FACE_OUTER_BOUND('',#453,.T.);
#353=FACE_OUTER_BOUND('',#454,.T.);
#354=FACE_OUTER_BOUND('',#455,.T.);
#355=FACE_OUTER_BOUND('',#456,.T.);
#356=FACE_OUTER_BOUND('',#457,.T.);
#357=FACE_OUTER_BOUND('',#458,.T.);
#358=FACE_OUTER_BOUND('',#459,.T.);
#359=FACE_OUTER_BOUND('',#460,.T.);
#360=FACE_OUTER_BOUND('',#461,.T.);
#361=FACE_OUTER_BOUND('',#462,.T.);
#362=FACE_OUTER_BOUND('',#463,.T.);
#363=EDGE_LOOP('',(#764,#765,#766,#767,#768));
#364=EDGE_LOOP('',(#769));
#365=EDGE_LOOP('',(#770));
#366=EDGE_LOOP('',(#771,#772,#773,#774,#775,#776));
#367=EDGE_LOOP('',(#777,#778,#779,#780,#781));
#368=EDGE_LOOP('',(#782,#783,#784,#785,#786));
#369=EDGE_LOOP('',(#787,#788,#789,#790));
#370=EDGE_LOOP('',(#791,#792,#793,#794));
#371=EDGE_LOOP('',(#795,#796,#797,#798));
#372=EDGE_LOOP('',(#799,#800,#801,#802));
#373=EDGE_LOOP('',(#803,#804,#805,#806));
#374=EDGE_LOOP('',(#807,#808,#809,#810));
#375=EDGE_LOOP('',(#811,#812,#813,#814));
#376=EDGE_LOOP('',(#815,#816,#817,#818));
#377=EDGE_LOOP('',(#819,#820,#821,#822));
#378=EDGE_LOOP('',(#823,#824,#825,#826));
#379=EDGE_LOOP('',(#827));
#380=EDGE_LOOP('',(#828,#829,#830,#831));
#381=EDGE_LOOP('',(#832,#833,#834,#835));
#382=EDGE_LOOP('',(#836,#837,#838,#839,#840,#841,#842,#843,#844,#845,#846,
#847));
#383=EDGE_LOOP('',(#848,#849,#850,#851));
#384=EDGE_LOOP('',(#852,#853,#854,#855,#856,#857,#858,#859,#860,#861,#862,
#863));
#385=EDGE_LOOP('',(#864,#865,#866,#867));
#386=EDGE_LOOP('',(#868,#869,#870,#871));
#387=EDGE_LOOP('',(#872,#873,#874,#875));
#388=EDGE_LOOP('',(#876,#877,#878,#879));
#389=EDGE_LOOP('',(#880,#881,#882,#883));
#390=EDGE_LOOP('',(#884,#885,#886,#887));
#391=EDGE_LOOP('',(#888,#889,#890,#891));
#392=EDGE_LOOP('',(#892,#893,#894,#895));
#393=EDGE_LOOP('',(#896,#897,#898,#899));
#394=EDGE_LOOP('',(#900,#901,#902,#903));
#395=EDGE_LOOP('',(#904,#905,#906,#907));
#396=EDGE_LOOP('',(#908,#909,#910,#911));
#397=EDGE_LOOP('',(#912));
#398=EDGE_LOOP('',(#913));
#399=EDGE_LOOP('',(#914));
#400=EDGE_LOOP('',(#915,#916,#917,#918));
#401=EDGE_LOOP('',(#919));
#402=EDGE_LOOP('',(#920));
#403=EDGE_LOOP('',(#921));
#404=EDGE_LOOP('',(#922));
#405=EDGE_LOOP('',(#923));
#406=EDGE_LOOP('',(#924));
#407=EDGE_LOOP('',(#925));
#408=EDGE_LOOP('',(#926));
#409=EDGE_LOOP('',(#927));
#410=EDGE_LOOP('',(#928));
#411=EDGE_LOOP('',(#929));
#412=EDGE_LOOP('',(#930));
#413=EDGE_LOOP('',(#931));
#414=EDGE_LOOP('',(#932));
#415=EDGE_LOOP('',(#933));
#416=EDGE_LOOP('',(#934));
#417=EDGE_LOOP('',(#935));
#418=EDGE_LOOP('',(#936));
#419=EDGE_LOOP('',(#937));
#420=EDGE_LOOP('',(#938));
#421=EDGE_LOOP('',(#939,#940,#941,#942,#943));
#422=EDGE_LOOP('',(#944));
#423=EDGE_LOOP('',(#945));
#424=EDGE_LOOP('',(#946));
#425=EDGE_LOOP('',(#947));
#426=EDGE_LOOP('',(#948));
#427=EDGE_LOOP('',(#949));
#428=EDGE_LOOP('',(#950));
#429=EDGE_LOOP('',(#951));
#430=EDGE_LOOP('',(#952));
#431=EDGE_LOOP('',(#953));
#432=EDGE_LOOP('',(#954));
#433=EDGE_LOOP('',(#955));
#434=EDGE_LOOP('',(#956));
#435=EDGE_LOOP('',(#957));
#436=EDGE_LOOP('',(#958));
#437=EDGE_LOOP('',(#959));
#438=EDGE_LOOP('',(#960));
#439=EDGE_LOOP('',(#961));
#440=EDGE_LOOP('',(#962));
#441=EDGE_LOOP('',(#963));
#442=EDGE_LOOP('',(#964,#965,#966,#967));
#443=EDGE_LOOP('',(#968,#969,#970,#971));
#444=EDGE_LOOP('',(#972,#973,#974,#975));
#445=EDGE_LOOP('',(#976,#977,#978,#979));
#446=EDGE_LOOP('',(#980,#981,#982,#983));
#447=EDGE_LOOP('',(#984,#985,#986,#987));
#448=EDGE_LOOP('',(#988,#989,#990,#991));
#449=EDGE_LOOP('',(#992,#993,#994,#995));
#450=EDGE_LOOP('',(#996,#997,#998,#999));
#451=EDGE_LOOP('',(#1000,#1001,#1002,#1003));
#452=EDGE_LOOP('',(#1004,#1005,#1006,#1007));
#453=EDGE_LOOP('',(#1008,#1009,#1010,#1011));
#454=EDGE_LOOP('',(#1012,#1013,#1014,#1015));
#455=EDGE_LOOP('',(#1016,#1017,#1018,#1019));
#456=EDGE_LOOP('',(#1020,#1021,#1022,#1023));
#457=EDGE_LOOP('',(#1024,#1025,#1026,#1027));
#458=EDGE_LOOP('',(#1028,#1029,#1030,#1031));
#459=EDGE_LOOP('',(#1032,#1033,#1034,#1035));
#460=EDGE_LOOP('',(#1036,#1037,#1038,#1039));
#461=EDGE_LOOP('',(#1040,#1041,#1042,#1043));
#462=EDGE_LOOP('',(#1044));
#463=EDGE_LOOP('',(#1045));
#464=CIRCLE('',#1132,4.75);
#465=CIRCLE('',#1133,0.1);
#466=CIRCLE('',#1134,4.85);
#467=CIRCLE('',#1135,4.85);
#468=CIRCLE('',#1137,4.57213595499958);
#469=CIRCLE('',#1139,4.85);
#470=CIRCLE('',#1140,4.85);
#471=CIRCLE('',#1142,0.1);
#472=CIRCLE('',#1143,4.47213595499958);
#473=CIRCLE('',#1144,4.47213595499958);
#474=CIRCLE('',#1146,4.47213595499958);
#475=CIRCLE('',#1149,0.5);
#476=CIRCLE('',#1150,0.5);
#477=CIRCLE('',#1151,0.875);
#478=CIRCLE('',#1152,0.392195691817068);
#479=CIRCLE('',#1160,0.392195691817068);
#480=CIRCLE('',#1162,0.5);
#481=CIRCLE('',#1164,0.5);
#482=CIRCLE('',#1165,0.875);
#483=CIRCLE('',#1167,3.97213595499958);
#484=CIRCLE('',#1168,3.97213595499958);
#485=CIRCLE('',#1186,4.47213595499958);
#486=CIRCLE('',#1188,4.47213595499958);
#487=CIRCLE('',#1190,0.2);
#488=CIRCLE('',#1191,0.2);
#489=CIRCLE('',#1192,0.2);
#490=CIRCLE('',#1193,0.2);
#491=CIRCLE('',#1194,0.2);
#492=CIRCLE('',#1195,0.2);
#493=CIRCLE('',#1196,0.2);
#494=CIRCLE('',#1197,0.2);
#495=CIRCLE('',#1198,0.2);
#496=CIRCLE('',#1199,0.2);
#497=CIRCLE('',#1200,0.2);
#498=CIRCLE('',#1201,0.2);
#499=CIRCLE('',#1202,0.2);
#500=CIRCLE('',#1203,0.2);
#501=CIRCLE('',#1204,0.2);
#502=CIRCLE('',#1205,0.2);
#503=CIRCLE('',#1206,0.2);
#504=CIRCLE('',#1207,0.2);
#505=CIRCLE('',#1208,0.2);
#506=CIRCLE('',#1210,4.35);
#507=CIRCLE('',#1211,0.5);
#508=CIRCLE('',#1213,0.2);
#509=CIRCLE('',#1214,0.2);
#510=CIRCLE('',#1215,0.2);
#511=CIRCLE('',#1216,0.2);
#512=CIRCLE('',#1217,0.2);
#513=CIRCLE('',#1218,0.2);
#514=CIRCLE('',#1219,0.2);
#515=CIRCLE('',#1220,0.2);
#516=CIRCLE('',#1221,0.2);
#517=CIRCLE('',#1222,0.2);
#518=CIRCLE('',#1223,0.2);
#519=CIRCLE('',#1224,0.2);
#520=CIRCLE('',#1225,0.2);
#521=CIRCLE('',#1226,0.2);
#522=CIRCLE('',#1227,0.2);
#523=CIRCLE('',#1228,0.2);
#524=CIRCLE('',#1229,0.2);
#525=CIRCLE('',#1230,0.2);
#526=CIRCLE('',#1231,0.2);
#527=CIRCLE('',#1252,4.35);
#528=CIRCLE('',#1253,4.35);
#529=VERTEX_POINT('',#1582);
#530=VERTEX_POINT('',#1584);
#531=VERTEX_POINT('',#1586);
#532=VERTEX_POINT('',#1590);
#533=VERTEX_POINT('',#1593);
#534=VERTEX_POINT('',#1594);
#535=VERTEX_POINT('',#1599);
#536=VERTEX_POINT('',#1601);
#537=VERTEX_POINT('',#1605);
#538=VERTEX_POINT('',#1609);
#539=VERTEX_POINT('',#1610);
#540=VERTEX_POINT('',#1612);
#541=VERTEX_POINT('',#1614);
#542=VERTEX_POINT('',#1632);
#543=VERTEX_POINT('',#1633);
#544=VERTEX_POINT('',#1638);
#545=VERTEX_POINT('',#1639);
#546=VERTEX_POINT('',#1647);
#547=VERTEX_POINT('',#1648);
#548=VERTEX_POINT('',#1650);
#549=VERTEX_POINT('',#1652);
#550=VERTEX_POINT('',#1656);
#551=VERTEX_POINT('',#1658);
#552=VERTEX_POINT('',#1662);
#553=VERTEX_POINT('',#1666);
#554=VERTEX_POINT('',#1686);
#555=VERTEX_POINT('',#1688);
#556=VERTEX_POINT('',#1692);
#557=VERTEX_POINT('',#1693);
#558=VERTEX_POINT('',#1695);
#559=VERTEX_POINT('',#1697);
#560=VERTEX_POINT('',#1699);
#561=VERTEX_POINT('',#1701);
#562=VERTEX_POINT('',#1703);
#563=VERTEX_POINT('',#1705);
#564=VERTEX_POINT('',#1707);
#565=VERTEX_POINT('',#1709);
#566=VERTEX_POINT('',#1711);
#567=VERTEX_POINT('',#1713);
#568=VERTEX_POINT('',#1718);
#569=VERTEX_POINT('',#1719);
#570=VERTEX_POINT('',#1721);
#571=VERTEX_POINT('',#1723);
#572=VERTEX_POINT('',#1725);
#573=VERTEX_POINT('',#1727);
#574=VERTEX_POINT('',#1729);
#575=VERTEX_POINT('',#1731);
#576=VERTEX_POINT('',#1733);
#577=VERTEX_POINT('',#1735);
#578=VERTEX_POINT('',#1737);
#579=VERTEX_POINT('',#1739);
#580=VERTEX_POINT('',#1768);
#581=VERTEX_POINT('',#1771);
#582=VERTEX_POINT('',#1775);
#583=VERTEX_POINT('',#1777);
#584=VERTEX_POINT('',#1779);
#585=VERTEX_POINT('',#1781);
#586=VERTEX_POINT('',#1783);
#587=VERTEX_POINT('',#1785);
#588=VERTEX_POINT('',#1787);
#589=VERTEX_POINT('',#1789);
#590=VERTEX_POINT('',#1791);
#591=VERTEX_POINT('',#1793);
#592=VERTEX_POINT('',#1795);
#593=VERTEX_POINT('',#1797);
#594=VERTEX_POINT('',#1799);
#595=VERTEX_POINT('',#1801);
#596=VERTEX_POINT('',#1803);
#597=VERTEX_POINT('',#1805);
#598=VERTEX_POINT('',#1807);
#599=VERTEX_POINT('',#1809);
#600=VERTEX_POINT('',#1811);
#601=VERTEX_POINT('',#1814);
#602=VERTEX_POINT('',#1818);
#603=VERTEX_POINT('',#1820);
#604=VERTEX_POINT('',#1822);
#605=VERTEX_POINT('',#1824);
#606=VERTEX_POINT('',#1826);
#607=VERTEX_POINT('',#1828);
#608=VERTEX_POINT('',#1830);
#609=VERTEX_POINT('',#1832);
#610=VERTEX_POINT('',#1834);
#611=VERTEX_POINT('',#1836);
#612=VERTEX_POINT('',#1838);
#613=VERTEX_POINT('',#1840);
#614=VERTEX_POINT('',#1842);
#615=VERTEX_POINT('',#1844);
#616=VERTEX_POINT('',#1846);
#617=VERTEX_POINT('',#1848);
#618=VERTEX_POINT('',#1850);
#619=VERTEX_POINT('',#1852);
#620=VERTEX_POINT('',#1854);
#621=VERTEX_POINT('',#1895);
#622=VERTEX_POINT('',#1897);
#623=EDGE_CURVE('',#529,#529,#464,.T.);
#624=EDGE_CURVE('',#529,#530,#465,.T.);
#625=EDGE_CURVE('',#530,#531,#466,.T.);
#626=EDGE_CURVE('',#531,#530,#467,.T.);
#627=EDGE_CURVE('',#532,#532,#468,.T.);
#628=EDGE_CURVE('',#533,#534,#469,.T.);
#629=EDGE_CURVE('',#533,#531,#21,.T.);
#630=EDGE_CURVE('',#534,#533,#470,.T.);
#631=EDGE_CURVE('',#532,#535,#471,.T.);
#632=EDGE_CURVE('',#535,#536,#472,.T.);
#633=EDGE_CURVE('',#536,#535,#473,.T.);
#634=EDGE_CURVE('',#536,#537,#22,.T.);
#635=EDGE_CURVE('',#537,#537,#474,.T.);
#636=EDGE_CURVE('',#538,#539,#17,.T.);
#637=EDGE_CURVE('',#539,#540,#23,.T.);
#638=EDGE_CURVE('',#540,#541,#475,.T.);
#639=EDGE_CURVE('',#541,#538,#24,.T.);
#640=EDGE_CURVE('',#542,#543,#476,.T.);
#641=EDGE_CURVE('',#543,#541,#477,.T.);
#642=EDGE_CURVE('',#540,#542,#478,.T.);
#643=EDGE_CURVE('',#544,#545,#18,.T.);
#644=EDGE_CURVE('',#545,#543,#25,.T.);
#645=EDGE_CURVE('',#542,#544,#26,.T.);
#646=EDGE_CURVE('',#538,#545,#27,.T.);
#647=EDGE_CURVE('',#544,#539,#28,.T.);
#648=EDGE_CURVE('',#546,#547,#19,.T.);
#649=EDGE_CURVE('',#547,#548,#29,.T.);
#650=EDGE_CURVE('',#548,#549,#20,.T.);
#651=EDGE_CURVE('',#549,#546,#30,.T.);
#652=EDGE_CURVE('',#550,#547,#31,.T.);
#653=EDGE_CURVE('',#551,#550,#479,.T.);
#654=EDGE_CURVE('',#548,#551,#32,.T.);
#655=EDGE_CURVE('',#546,#552,#33,.T.);
#656=EDGE_CURVE('',#550,#552,#480,.T.);
#657=EDGE_CURVE('',#551,#553,#481,.T.);
#658=EDGE_CURVE('',#553,#549,#34,.T.);
#659=EDGE_CURVE('',#552,#553,#482,.T.);
#660=EDGE_CURVE('',#554,#554,#483,.T.);
#661=EDGE_CURVE('',#554,#555,#35,.T.);
#662=EDGE_CURVE('',#555,#555,#484,.T.);
#663=EDGE_CURVE('',#556,#557,#36,.T.);
#664=EDGE_CURVE('',#558,#556,#37,.T.);
#665=EDGE_CURVE('',#559,#558,#38,.T.);
#666=EDGE_CURVE('',#560,#559,#39,.T.);
#667=EDGE_CURVE('',#561,#560,#40,.T.);
#668=EDGE_CURVE('',#562,#561,#41,.T.);
#669=EDGE_CURVE('',#563,#562,#42,.T.);
#670=EDGE_CURVE('',#564,#563,#43,.T.);
#671=EDGE_CURVE('',#565,#564,#44,.T.);
#672=EDGE_CURVE('',#566,#565,#45,.T.);
#673=EDGE_CURVE('',#567,#566,#46,.T.);
#674=EDGE_CURVE('',#557,#567,#47,.T.);
#675=EDGE_CURVE('',#568,#569,#48,.T.);
#676=EDGE_CURVE('',#570,#568,#49,.T.);
#677=EDGE_CURVE('',#571,#570,#50,.T.);
#678=EDGE_CURVE('',#572,#571,#51,.T.);
#679=EDGE_CURVE('',#573,#572,#52,.T.);
#680=EDGE_CURVE('',#574,#573,#53,.T.);
#681=EDGE_CURVE('',#575,#574,#54,.T.);
#682=EDGE_CURVE('',#576,#575,#55,.T.);
#683=EDGE_CURVE('',#577,#576,#56,.T.);
#684=EDGE_CURVE('',#578,#577,#57,.T.);
#685=EDGE_CURVE('',#579,#578,#58,.T.);
#686=EDGE_CURVE('',#569,#579,#59,.T.);
#687=EDGE_CURVE('',#573,#565,#60,.T.);
#688=EDGE_CURVE('',#574,#564,#61,.T.);
#689=EDGE_CURVE('',#572,#566,#62,.T.);
#690=EDGE_CURVE('',#571,#567,#63,.T.);
#691=EDGE_CURVE('',#570,#557,#64,.T.);
#692=EDGE_CURVE('',#568,#556,#65,.T.);
#693=EDGE_CURVE('',#569,#558,#66,.T.);
#694=EDGE_CURVE('',#575,#563,#67,.T.);
#695=EDGE_CURVE('',#576,#562,#68,.T.);
#696=EDGE_CURVE('',#577,#561,#69,.T.);
#697=EDGE_CURVE('',#578,#560,#70,.T.);
#698=EDGE_CURVE('',#579,#559,#71,.T.);
#699=EDGE_CURVE('',#580,#580,#485,.T.);
#700=EDGE_CURVE('',#580,#581,#72,.T.);
#701=EDGE_CURVE('',#581,#581,#486,.T.);
#702=EDGE_CURVE('',#582,#582,#487,.T.);
#703=EDGE_CURVE('',#583,#583,#488,.T.);
#704=EDGE_CURVE('',#584,#584,#489,.T.);
#705=EDGE_CURVE('',#585,#585,#490,.T.);
#706=EDGE_CURVE('',#586,#586,#491,.T.);
#707=EDGE_CURVE('',#587,#587,#492,.T.);
#708=EDGE_CURVE('',#588,#588,#493,.T.);
#709=EDGE_CURVE('',#589,#589,#494,.T.);
#710=EDGE_CURVE('',#590,#590,#495,.T.);
#711=EDGE_CURVE('',#591,#591,#496,.T.);
#712=EDGE_CURVE('',#592,#592,#497,.T.);
#713=EDGE_CURVE('',#593,#593,#498,.T.);
#714=EDGE_CURVE('',#594,#594,#499,.T.);
#715=EDGE_CURVE('',#595,#595,#500,.T.);
#716=EDGE_CURVE('',#596,#596,#501,.T.);
#717=EDGE_CURVE('',#597,#597,#502,.T.);
#718=EDGE_CURVE('',#598,#598,#503,.T.);
#719=EDGE_CURVE('',#599,#599,#504,.T.);
#720=EDGE_CURVE('',#600,#600,#505,.T.);
#721=EDGE_CURVE('',#601,#601,#506,.T.);
#722=EDGE_CURVE('',#601,#534,#507,.T.);
#723=EDGE_CURVE('',#602,#602,#508,.T.);
#724=EDGE_CURVE('',#603,#603,#509,.T.);
#725=EDGE_CURVE('',#604,#604,#510,.T.);
#726=EDGE_CURVE('',#605,#605,#511,.T.);
#727=EDGE_CURVE('',#606,#606,#512,.T.);
#728=EDGE_CURVE('',#607,#607,#513,.T.);
#729=EDGE_CURVE('',#608,#608,#514,.T.);
#730=EDGE_CURVE('',#609,#609,#515,.T.);
#731=EDGE_CURVE('',#610,#610,#516,.T.);
#732=EDGE_CURVE('',#611,#611,#517,.T.);
#733=EDGE_CURVE('',#612,#612,#518,.T.);
#734=EDGE_CURVE('',#613,#613,#519,.T.);
#735=EDGE_CURVE('',#614,#614,#520,.T.);
#736=EDGE_CURVE('',#615,#615,#521,.T.);
#737=EDGE_CURVE('',#616,#616,#522,.T.);
#738=EDGE_CURVE('',#617,#617,#523,.T.);
#739=EDGE_CURVE('',#618,#618,#524,.T.);
#740=EDGE_CURVE('',#619,#619,#525,.T.);
#741=EDGE_CURVE('',#620,#620,#526,.T.);
#742=EDGE_CURVE('',#600,#620,#73,.T.);
#743=EDGE_CURVE('',#599,#619,#74,.T.);
#744=EDGE_CURVE('',#598,#618,#75,.T.);
#745=EDGE_CURVE('',#597,#617,#76,.T.);
#746=EDGE_CURVE('',#596,#616,#77,.T.);
#747=EDGE_CURVE('',#595,#615,#78,.T.);
#748=EDGE_CURVE('',#594,#614,#79,.T.);
#749=EDGE_CURVE('',#593,#613,#80,.T.);
#750=EDGE_CURVE('',#592,#612,#81,.T.);
#751=EDGE_CURVE('',#591,#611,#82,.T.);
#752=EDGE_CURVE('',#590,#610,#83,.T.);
#753=EDGE_CURVE('',#589,#609,#84,.T.);
#754=EDGE_CURVE('',#588,#608,#85,.T.);
#755=EDGE_CURVE('',#587,#607,#86,.T.);
#756=EDGE_CURVE('',#586,#606,#87,.T.);
#757=EDGE_CURVE('',#585,#605,#88,.T.);
#758=EDGE_CURVE('',#584,#604,#89,.T.);
#759=EDGE_CURVE('',#583,#603,#90,.T.);
#760=EDGE_CURVE('',#582,#602,#91,.T.);
#761=EDGE_CURVE('',#621,#621,#527,.T.);
#762=EDGE_CURVE('',#621,#622,#92,.T.);
#763=EDGE_CURVE('',#622,#622,#528,.T.);
#764=ORIENTED_EDGE('',*,*,#623,.T.);
#765=ORIENTED_EDGE('',*,*,#624,.T.);
#766=ORIENTED_EDGE('',*,*,#625,.T.);
#767=ORIENTED_EDGE('',*,*,#626,.T.);
#768=ORIENTED_EDGE('',*,*,#624,.F.);
#769=ORIENTED_EDGE('',*,*,#623,.F.);
#770=ORIENTED_EDGE('',*,*,#627,.F.);
#771=ORIENTED_EDGE('',*,*,#628,.F.);
#772=ORIENTED_EDGE('',*,*,#629,.T.);
#773=ORIENTED_EDGE('',*,*,#625,.F.);
#774=ORIENTED_EDGE('',*,*,#626,.F.);
#775=ORIENTED_EDGE('',*,*,#629,.F.);
#776=ORIENTED_EDGE('',*,*,#630,.F.);
#777=ORIENTED_EDGE('',*,*,#627,.T.);
#778=ORIENTED_EDGE('',*,*,#631,.T.);
#779=ORIENTED_EDGE('',*,*,#632,.T.);
#780=ORIENTED_EDGE('',*,*,#633,.T.);
#781=ORIENTED_EDGE('',*,*,#631,.F.);
#782=ORIENTED_EDGE('',*,*,#633,.F.);
#783=ORIENTED_EDGE('',*,*,#634,.T.);
#784=ORIENTED_EDGE('',*,*,#635,.T.);
#785=ORIENTED_EDGE('',*,*,#634,.F.);
#786=ORIENTED_EDGE('',*,*,#632,.F.);
#787=ORIENTED_EDGE('',*,*,#636,.T.);
#788=ORIENTED_EDGE('',*,*,#637,.T.);
#789=ORIENTED_EDGE('',*,*,#638,.T.);
#790=ORIENTED_EDGE('',*,*,#639,.T.);
#791=ORIENTED_EDGE('',*,*,#640,.T.);
#792=ORIENTED_EDGE('',*,*,#641,.T.);
#793=ORIENTED_EDGE('',*,*,#638,.F.);
#794=ORIENTED_EDGE('',*,*,#642,.T.);
#795=ORIENTED_EDGE('',*,*,#643,.T.);
#796=ORIENTED_EDGE('',*,*,#644,.T.);
#797=ORIENTED_EDGE('',*,*,#640,.F.);
#798=ORIENTED_EDGE('',*,*,#645,.T.);
#799=ORIENTED_EDGE('',*,*,#636,.F.);
#800=ORIENTED_EDGE('',*,*,#646,.T.);
#801=ORIENTED_EDGE('',*,*,#643,.F.);
#802=ORIENTED_EDGE('',*,*,#647,.T.);
#803=ORIENTED_EDGE('',*,*,#648,.T.);
#804=ORIENTED_EDGE('',*,*,#649,.T.);
#805=ORIENTED_EDGE('',*,*,#650,.T.);
#806=ORIENTED_EDGE('',*,*,#651,.T.);
#807=ORIENTED_EDGE('',*,*,#649,.F.);
#808=ORIENTED_EDGE('',*,*,#652,.F.);
#809=ORIENTED_EDGE('',*,*,#653,.F.);
#810=ORIENTED_EDGE('',*,*,#654,.F.);
#811=ORIENTED_EDGE('',*,*,#648,.F.);
#812=ORIENTED_EDGE('',*,*,#655,.T.);
#813=ORIENTED_EDGE('',*,*,#656,.F.);
#814=ORIENTED_EDGE('',*,*,#652,.T.);
#815=ORIENTED_EDGE('',*,*,#650,.F.);
#816=ORIENTED_EDGE('',*,*,#654,.T.);
#817=ORIENTED_EDGE('',*,*,#657,.T.);
#818=ORIENTED_EDGE('',*,*,#658,.T.);
#819=ORIENTED_EDGE('',*,*,#656,.T.);
#820=ORIENTED_EDGE('',*,*,#659,.T.);
#821=ORIENTED_EDGE('',*,*,#657,.F.);
#822=ORIENTED_EDGE('',*,*,#653,.T.);
#823=ORIENTED_EDGE('',*,*,#660,.F.);
#824=ORIENTED_EDGE('',*,*,#661,.T.);
#825=ORIENTED_EDGE('',*,*,#662,.T.);
#826=ORIENTED_EDGE('',*,*,#661,.F.);
#827=ORIENTED_EDGE('',*,*,#662,.F.);
#828=ORIENTED_EDGE('',*,*,#655,.F.);
#829=ORIENTED_EDGE('',*,*,#651,.F.);
#830=ORIENTED_EDGE('',*,*,#658,.F.);
#831=ORIENTED_EDGE('',*,*,#659,.F.);
#832=ORIENTED_EDGE('',*,*,#644,.F.);
#833=ORIENTED_EDGE('',*,*,#646,.F.);
#834=ORIENTED_EDGE('',*,*,#639,.F.);
#835=ORIENTED_EDGE('',*,*,#641,.F.);
#836=ORIENTED_EDGE('',*,*,#663,.F.);
#837=ORIENTED_EDGE('',*,*,#664,.F.);
#838=ORIENTED_EDGE('',*,*,#665,.F.);
#839=ORIENTED_EDGE('',*,*,#666,.F.);
#840=ORIENTED_EDGE('',*,*,#667,.F.);
#841=ORIENTED_EDGE('',*,*,#668,.F.);
#842=ORIENTED_EDGE('',*,*,#669,.F.);
#843=ORIENTED_EDGE('',*,*,#670,.F.);
#844=ORIENTED_EDGE('',*,*,#671,.F.);
#845=ORIENTED_EDGE('',*,*,#672,.F.);
#846=ORIENTED_EDGE('',*,*,#673,.F.);
#847=ORIENTED_EDGE('',*,*,#674,.F.);
#848=ORIENTED_EDGE('',*,*,#637,.F.);
#849=ORIENTED_EDGE('',*,*,#647,.F.);
#850=ORIENTED_EDGE('',*,*,#645,.F.);
#851=ORIENTED_EDGE('',*,*,#642,.F.);
#852=ORIENTED_EDGE('',*,*,#675,.F.);
#853=ORIENTED_EDGE('',*,*,#676,.F.);
#854=ORIENTED_EDGE('',*,*,#677,.F.);
#855=ORIENTED_EDGE('',*,*,#678,.F.);
#856=ORIENTED_EDGE('',*,*,#679,.F.);
#857=ORIENTED_EDGE('',*,*,#680,.F.);
#858=ORIENTED_EDGE('',*,*,#681,.F.);
#859=ORIENTED_EDGE('',*,*,#682,.F.);
#860=ORIENTED_EDGE('',*,*,#683,.F.);
#861=ORIENTED_EDGE('',*,*,#684,.F.);
#862=ORIENTED_EDGE('',*,*,#685,.F.);
#863=ORIENTED_EDGE('',*,*,#686,.F.);
#864=ORIENTED_EDGE('',*,*,#680,.T.);
#865=ORIENTED_EDGE('',*,*,#687,.T.);
#866=ORIENTED_EDGE('',*,*,#671,.T.);
#867=ORIENTED_EDGE('',*,*,#688,.F.);
#868=ORIENTED_EDGE('',*,*,#679,.T.);
#869=ORIENTED_EDGE('',*,*,#689,.T.);
#870=ORIENTED_EDGE('',*,*,#672,.T.);
#871=ORIENTED_EDGE('',*,*,#687,.F.);
#872=ORIENTED_EDGE('',*,*,#678,.T.);
#873=ORIENTED_EDGE('',*,*,#690,.T.);
#874=ORIENTED_EDGE('',*,*,#673,.T.);
#875=ORIENTED_EDGE('',*,*,#689,.F.);
#876=ORIENTED_EDGE('',*,*,#677,.T.);
#877=ORIENTED_EDGE('',*,*,#691,.T.);
#878=ORIENTED_EDGE('',*,*,#674,.T.);
#879=ORIENTED_EDGE('',*,*,#690,.F.);
#880=ORIENTED_EDGE('',*,*,#676,.T.);
#881=ORIENTED_EDGE('',*,*,#692,.T.);
#882=ORIENTED_EDGE('',*,*,#663,.T.);
#883=ORIENTED_EDGE('',*,*,#691,.F.);
#884=ORIENTED_EDGE('',*,*,#675,.T.);
#885=ORIENTED_EDGE('',*,*,#693,.T.);
#886=ORIENTED_EDGE('',*,*,#664,.T.);
#887=ORIENTED_EDGE('',*,*,#692,.F.);
#888=ORIENTED_EDGE('',*,*,#681,.T.);
#889=ORIENTED_EDGE('',*,*,#688,.T.);
#890=ORIENTED_EDGE('',*,*,#670,.T.);
#891=ORIENTED_EDGE('',*,*,#694,.F.);
#892=ORIENTED_EDGE('',*,*,#682,.T.);
#893=ORIENTED_EDGE('',*,*,#694,.T.);
#894=ORIENTED_EDGE('',*,*,#669,.T.);
#895=ORIENTED_EDGE('',*,*,#695,.F.);
#896=ORIENTED_EDGE('',*,*,#683,.T.);
#897=ORIENTED_EDGE('',*,*,#695,.T.);
#898=ORIENTED_EDGE('',*,*,#668,.T.);
#899=ORIENTED_EDGE('',*,*,#696,.F.);
#900=ORIENTED_EDGE('',*,*,#684,.T.);
#901=ORIENTED_EDGE('',*,*,#696,.T.);
#902=ORIENTED_EDGE('',*,*,#667,.T.);
#903=ORIENTED_EDGE('',*,*,#697,.F.);
#904=ORIENTED_EDGE('',*,*,#685,.T.);
#905=ORIENTED_EDGE('',*,*,#697,.T.);
#906=ORIENTED_EDGE('',*,*,#666,.T.);
#907=ORIENTED_EDGE('',*,*,#698,.F.);
#908=ORIENTED_EDGE('',*,*,#686,.T.);
#909=ORIENTED_EDGE('',*,*,#698,.T.);
#910=ORIENTED_EDGE('',*,*,#665,.T.);
#911=ORIENTED_EDGE('',*,*,#693,.F.);
#912=ORIENTED_EDGE('',*,*,#635,.F.);
#913=ORIENTED_EDGE('',*,*,#660,.T.);
#914=ORIENTED_EDGE('',*,*,#699,.F.);
#915=ORIENTED_EDGE('',*,*,#699,.T.);
#916=ORIENTED_EDGE('',*,*,#700,.T.);
#917=ORIENTED_EDGE('',*,*,#701,.T.);
#918=ORIENTED_EDGE('',*,*,#700,.F.);
#919=ORIENTED_EDGE('',*,*,#701,.F.);
#920=ORIENTED_EDGE('',*,*,#702,.F.);
#921=ORIENTED_EDGE('',*,*,#703,.F.);
#922=ORIENTED_EDGE('',*,*,#704,.F.);
#923=ORIENTED_EDGE('',*,*,#705,.F.);
#924=ORIENTED_EDGE('',*,*,#706,.F.);
#925=ORIENTED_EDGE('',*,*,#707,.F.);
#926=ORIENTED_EDGE('',*,*,#708,.F.);
#927=ORIENTED_EDGE('',*,*,#709,.F.);
#928=ORIENTED_EDGE('',*,*,#710,.F.);
#929=ORIENTED_EDGE('',*,*,#711,.F.);
#930=ORIENTED_EDGE('',*,*,#712,.F.);
#931=ORIENTED_EDGE('',*,*,#713,.F.);
#932=ORIENTED_EDGE('',*,*,#714,.F.);
#933=ORIENTED_EDGE('',*,*,#715,.F.);
#934=ORIENTED_EDGE('',*,*,#716,.F.);
#935=ORIENTED_EDGE('',*,*,#717,.F.);
#936=ORIENTED_EDGE('',*,*,#718,.F.);
#937=ORIENTED_EDGE('',*,*,#719,.F.);
#938=ORIENTED_EDGE('',*,*,#720,.F.);
#939=ORIENTED_EDGE('',*,*,#721,.T.);
#940=ORIENTED_EDGE('',*,*,#722,.T.);
#941=ORIENTED_EDGE('',*,*,#630,.T.);
#942=ORIENTED_EDGE('',*,*,#628,.T.);
#943=ORIENTED_EDGE('',*,*,#722,.F.);
#944=ORIENTED_EDGE('',*,*,#721,.F.);
#945=ORIENTED_EDGE('',*,*,#723,.T.);
#946=ORIENTED_EDGE('',*,*,#724,.T.);
#947=ORIENTED_EDGE('',*,*,#725,.T.);
#948=ORIENTED_EDGE('',*,*,#726,.T.);
#949=ORIENTED_EDGE('',*,*,#727,.T.);
#950=ORIENTED_EDGE('',*,*,#728,.T.);
#951=ORIENTED_EDGE('',*,*,#729,.T.);
#952=ORIENTED_EDGE('',*,*,#730,.T.);
#953=ORIENTED_EDGE('',*,*,#731,.T.);
#954=ORIENTED_EDGE('',*,*,#732,.T.);
#955=ORIENTED_EDGE('',*,*,#733,.T.);
#956=ORIENTED_EDGE('',*,*,#734,.T.);
#957=ORIENTED_EDGE('',*,*,#735,.T.);
#958=ORIENTED_EDGE('',*,*,#736,.T.);
#959=ORIENTED_EDGE('',*,*,#737,.T.);
#960=ORIENTED_EDGE('',*,*,#738,.T.);
#961=ORIENTED_EDGE('',*,*,#739,.T.);
#962=ORIENTED_EDGE('',*,*,#740,.T.);
#963=ORIENTED_EDGE('',*,*,#741,.T.);
#964=ORIENTED_EDGE('',*,*,#720,.T.);
#965=ORIENTED_EDGE('',*,*,#742,.T.);
#966=ORIENTED_EDGE('',*,*,#741,.F.);
#967=ORIENTED_EDGE('',*,*,#742,.F.);
#968=ORIENTED_EDGE('',*,*,#719,.T.);
#969=ORIENTED_EDGE('',*,*,#743,.T.);
#970=ORIENTED_EDGE('',*,*,#740,.F.);
#971=ORIENTED_EDGE('',*,*,#743,.F.);
#972=ORIENTED_EDGE('',*,*,#718,.T.);
#973=ORIENTED_EDGE('',*,*,#744,.T.);
#974=ORIENTED_EDGE('',*,*,#739,.F.);
#975=ORIENTED_EDGE('',*,*,#744,.F.);
#976=ORIENTED_EDGE('',*,*,#717,.T.);
#977=ORIENTED_EDGE('',*,*,#745,.T.);
#978=ORIENTED_EDGE('',*,*,#738,.F.);
#979=ORIENTED_EDGE('',*,*,#745,.F.);
#980=ORIENTED_EDGE('',*,*,#716,.T.);
#981=ORIENTED_EDGE('',*,*,#746,.T.);
#982=ORIENTED_EDGE('',*,*,#737,.F.);
#983=ORIENTED_EDGE('',*,*,#746,.F.);
#984=ORIENTED_EDGE('',*,*,#715,.T.);
#985=ORIENTED_EDGE('',*,*,#747,.T.);
#986=ORIENTED_EDGE('',*,*,#736,.F.);
#987=ORIENTED_EDGE('',*,*,#747,.F.);
#988=ORIENTED_EDGE('',*,*,#714,.T.);
#989=ORIENTED_EDGE('',*,*,#748,.T.);
#990=ORIENTED_EDGE('',*,*,#735,.F.);
#991=ORIENTED_EDGE('',*,*,#748,.F.);
#992=ORIENTED_EDGE('',*,*,#713,.T.);
#993=ORIENTED_EDGE('',*,*,#749,.T.);
#994=ORIENTED_EDGE('',*,*,#734,.F.);
#995=ORIENTED_EDGE('',*,*,#749,.F.);
#996=ORIENTED_EDGE('',*,*,#712,.T.);
#997=ORIENTED_EDGE('',*,*,#750,.T.);
#998=ORIENTED_EDGE('',*,*,#733,.F.);
#999=ORIENTED_EDGE('',*,*,#750,.F.);
#1000=ORIENTED_EDGE('',*,*,#711,.T.);
#1001=ORIENTED_EDGE('',*,*,#751,.T.);
#1002=ORIENTED_EDGE('',*,*,#732,.F.);
#1003=ORIENTED_EDGE('',*,*,#751,.F.);
#1004=ORIENTED_EDGE('',*,*,#710,.T.);
#1005=ORIENTED_EDGE('',*,*,#752,.T.);
#1006=ORIENTED_EDGE('',*,*,#731,.F.);
#1007=ORIENTED_EDGE('',*,*,#752,.F.);
#1008=ORIENTED_EDGE('',*,*,#709,.T.);
#1009=ORIENTED_EDGE('',*,*,#753,.T.);
#1010=ORIENTED_EDGE('',*,*,#730,.F.);
#1011=ORIENTED_EDGE('',*,*,#753,.F.);
#1012=ORIENTED_EDGE('',*,*,#708,.T.);
#1013=ORIENTED_EDGE('',*,*,#754,.T.);
#1014=ORIENTED_EDGE('',*,*,#729,.F.);
#1015=ORIENTED_EDGE('',*,*,#754,.F.);
#1016=ORIENTED_EDGE('',*,*,#707,.T.);
#1017=ORIENTED_EDGE('',*,*,#755,.T.);
#1018=ORIENTED_EDGE('',*,*,#728,.F.);
#1019=ORIENTED_EDGE('',*,*,#755,.F.);
#1020=ORIENTED_EDGE('',*,*,#706,.T.);
#1021=ORIENTED_EDGE('',*,*,#756,.T.);
#1022=ORIENTED_EDGE('',*,*,#727,.F.);
#1023=ORIENTED_EDGE('',*,*,#756,.F.);
#1024=ORIENTED_EDGE('',*,*,#705,.T.);
#1025=ORIENTED_EDGE('',*,*,#757,.T.);
#1026=ORIENTED_EDGE('',*,*,#726,.F.);
#1027=ORIENTED_EDGE('',*,*,#757,.F.);
#1028=ORIENTED_EDGE('',*,*,#704,.T.);
#1029=ORIENTED_EDGE('',*,*,#758,.T.);
#1030=ORIENTED_EDGE('',*,*,#725,.F.);
#1031=ORIENTED_EDGE('',*,*,#758,.F.);
#1032=ORIENTED_EDGE('',*,*,#703,.T.);
#1033=ORIENTED_EDGE('',*,*,#759,.T.);
#1034=ORIENTED_EDGE('',*,*,#724,.F.);
#1035=ORIENTED_EDGE('',*,*,#759,.F.);
#1036=ORIENTED_EDGE('',*,*,#702,.T.);
#1037=ORIENTED_EDGE('',*,*,#760,.T.);
#1038=ORIENTED_EDGE('',*,*,#723,.F.);
#1039=ORIENTED_EDGE('',*,*,#760,.F.);
#1040=ORIENTED_EDGE('',*,*,#761,.F.);
#1041=ORIENTED_EDGE('',*,*,#762,.T.);
#1042=ORIENTED_EDGE('',*,*,#763,.F.);
#1043=ORIENTED_EDGE('',*,*,#762,.F.);
#1044=ORIENTED_EDGE('',*,*,#763,.T.);
#1045=ORIENTED_EDGE('',*,*,#761,.T.);
#1046=TOROIDAL_SURFACE('',#1131,4.75,0.1);
#1047=TOROIDAL_SURFACE('',#1141,4.57213595499958,0.1);
#1048=TOROIDAL_SURFACE('',#1209,4.35,0.5);
#1049=ADVANCED_FACE('',(#305),#1046,.T.);
#1050=ADVANCED_FACE('',(#306,#195),#238,.F.);
#1051=ADVANCED_FACE('',(#307),#165,.T.);
#1052=ADVANCED_FACE('',(#308),#1047,.T.);
#1053=ADVANCED_FACE('',(#309),#166,.F.);
#1054=ADVANCED_FACE('',(#310),#167,.T.);
#1055=ADVANCED_FACE('',(#311),#15,.T.);
#1056=ADVANCED_FACE('',(#312),#168,.T.);
#1057=ADVANCED_FACE('',(#313),#169,.T.);
#1058=ADVANCED_FACE('',(#314),#170,.T.);
#1059=ADVANCED_FACE('',(#315),#239,.F.);
#1060=ADVANCED_FACE('',(#316),#171,.T.);
#1061=ADVANCED_FACE('',(#317),#172,.T.);
#1062=ADVANCED_FACE('',(#318),#16,.T.);
#1063=ADVANCED_FACE('',(#319),#173,.F.);
#1064=ADVANCED_FACE('',(#320,#196,#197,#198),#240,.F.);
#1065=ADVANCED_FACE('',(#321),#241,.T.);
#1066=ADVANCED_FACE('',(#322),#242,.F.);
#1067=ADVANCED_FACE('',(#323),#243,.T.);
#1068=ADVANCED_FACE('',(#324),#244,.T.);
#1069=ADVANCED_FACE('',(#325),#245,.T.);
#1070=ADVANCED_FACE('',(#326),#246,.T.);
#1071=ADVANCED_FACE('',(#327),#247,.T.);
#1072=ADVANCED_FACE('',(#328),#248,.T.);
#1073=ADVANCED_FACE('',(#329),#249,.T.);
#1074=ADVANCED_FACE('',(#330),#250,.T.);
#1075=ADVANCED_FACE('',(#331),#251,.T.);
#1076=ADVANCED_FACE('',(#332),#252,.T.);
#1077=ADVANCED_FACE('',(#333),#253,.T.);
#1078=ADVANCED_FACE('',(#334),#254,.T.);
#1079=ADVANCED_FACE('',(#335,#199),#255,.F.);
#1080=ADVANCED_FACE('',(#336),#256,.T.);
#1081=ADVANCED_FACE('',(#337),#174,.F.);
#1082=ADVANCED_FACE('',(#338,#200,#201,#202,#203,#204,#205,#206,#207,#208,
#209,#210,#211,#212,#213,#214,#215,#216,#217,#218),#257,.F.);
#1083=ADVANCED_FACE('',(#339),#1048,.T.);
#1084=ADVANCED_FACE('',(#340,#219,#220,#221,#222,#223,#224,#225,#226,#227,
#228,#229,#230,#231,#232,#233,#234,#235,#236,#237),#258,.T.);
#1085=ADVANCED_FACE('',(#341),#175,.F.);
#1086=ADVANCED_FACE('',(#342),#176,.F.);
#1087=ADVANCED_FACE('',(#343),#177,.F.);
#1088=ADVANCED_FACE('',(#344),#178,.F.);
#1089=ADVANCED_FACE('',(#345),#179,.F.);
#1090=ADVANCED_FACE('',(#346),#180,.F.);
#1091=ADVANCED_FACE('',(#347),#181,.F.);
#1092=ADVANCED_FACE('',(#348),#182,.F.);
#1093=ADVANCED_FACE('',(#349),#183,.F.);
#1094=ADVANCED_FACE('',(#350),#184,.F.);
#1095=ADVANCED_FACE('',(#351),#185,.F.);
#1096=ADVANCED_FACE('',(#352),#186,.F.);
#1097=ADVANCED_FACE('',(#353),#187,.F.);
#1098=ADVANCED_FACE('',(#354),#188,.F.);
#1099=ADVANCED_FACE('',(#355),#189,.F.);
#1100=ADVANCED_FACE('',(#356),#190,.F.);
#1101=ADVANCED_FACE('',(#357),#191,.F.);
#1102=ADVANCED_FACE('',(#358),#192,.F.);
#1103=ADVANCED_FACE('',(#359),#193,.F.);
#1104=ADVANCED_FACE('',(#360),#194,.T.);
#1105=ADVANCED_FACE('',(#361),#259,.F.);
#1106=ADVANCED_FACE('',(#362),#260,.T.);
#1107=CLOSED_SHELL('',(#1049,#1050,#1051,#1052,#1053,#1054,#1055,#1056,
#1057,#1058,#1059,#1060,#1061,#1062,#1063,#1064,#1065,#1066,#1067,#1068,
#1069,#1070,#1071,#1072,#1073,#1074,#1075,#1076,#1077,#1078,#1079,#1080,
#1081,#1082,#1083,#1084,#1085,#1086,#1087,#1088,#1089,#1090,#1091,#1092,
#1093,#1094,#1095,#1096,#1097,#1098,#1099,#1100,#1101,#1102,#1103));
#1108=CLOSED_SHELL('',(#1104,#1105,#1106));
#1109=DERIVED_UNIT_ELEMENT(#1112,1.);
#1110=DERIVED_UNIT_ELEMENT(#1907,-3.);
#1111=DIMENSIONAL_EXPONENTS(0.,1.,0.,0.,0.,0.,0.);
#1112=(
CONVERSION_BASED_UNIT('gram',#1114)
MASS_UNIT()
NAMED_UNIT(#1111)
);
#1113=(
MASS_UNIT()
NAMED_UNIT(*)
SI_UNIT(.KILO.,.GRAM.)
);
#1114=MASS_MEASURE_WITH_UNIT(MASS_MEASURE(0.001),#1113);
#1115=DERIVED_UNIT((#1109,#1110));
#1116=MEASURE_REPRESENTATION_ITEM('density measure',
POSITIVE_RATIO_MEASURE(1.),#1115);
#1117=PROPERTY_DEFINITION_REPRESENTATION(#1122,#1119);
#1118=PROPERTY_DEFINITION_REPRESENTATION(#1123,#1120);
#1119=REPRESENTATION('material name',(#1121),#1904);
#1120=REPRESENTATION('density',(#1116),#1904);
#1121=DESCRIPTIVE_REPRESENTATION_ITEM('Generic','Generic');
#1122=PROPERTY_DEFINITION('material property','material name',#1914);
#1123=PROPERTY_DEFINITION('material property','density of part',#1914);
#1124=DATE_TIME_ROLE('creation_date');
#1125=APPLIED_DATE_AND_TIME_ASSIGNMENT(#1126,#1124,(#1914));
#1126=DATE_AND_TIME(#1127,#1128);
#1127=CALENDAR_DATE(2017,6,6);
#1128=LOCAL_TIME(0,0,0.,#1129);
#1129=COORDINATED_UNIVERSAL_TIME_OFFSET(0,0,.BEHIND.);
#1130=AXIS2_PLACEMENT_3D('',#1580,#1256,#1257);
#1131=AXIS2_PLACEMENT_3D('',#1581,#1258,#1259);
#1132=AXIS2_PLACEMENT_3D('',#1583,#1260,#1261);
#1133=AXIS2_PLACEMENT_3D('',#1585,#1262,#1263);
#1134=AXIS2_PLACEMENT_3D('',#1587,#1264,#1265);
#1135=AXIS2_PLACEMENT_3D('',#1588,#1266,#1267);
#1136=AXIS2_PLACEMENT_3D('',#1589,#1268,#1269);
#1137=AXIS2_PLACEMENT_3D('',#1591,#1270,#1271);
#1138=AXIS2_PLACEMENT_3D('',#1592,#1272,#1273);
#1139=AXIS2_PLACEMENT_3D('',#1595,#1274,#1275);
#1140=AXIS2_PLACEMENT_3D('',#1597,#1277,#1278);
#1141=AXIS2_PLACEMENT_3D('',#1598,#1279,#1280);
#1142=AXIS2_PLACEMENT_3D('',#1600,#1281,#1282);
#1143=AXIS2_PLACEMENT_3D('',#1602,#1283,#1284);
#1144=AXIS2_PLACEMENT_3D('',#1603,#1285,#1286);
#1145=AXIS2_PLACEMENT_3D('',#1604,#1287,#1288);
#1146=AXIS2_PLACEMENT_3D('',#1607,#1290,#1291);
#1147=AXIS2_PLACEMENT_3D('',#1608,#1292,#1293);
#1148=AXIS2_PLACEMENT_3D('',#1611,#1294,#1295);
#1149=AXIS2_PLACEMENT_3D('',#1615,#1297,#1298);
#1150=AXIS2_PLACEMENT_3D('',#1634,#1300,#1301);
#1151=AXIS2_PLACEMENT_3D('',#1635,#1302,#1303);
#1152=AXIS2_PLACEMENT_3D('',#1636,#1304,#1305);
#1153=AXIS2_PLACEMENT_3D('',#1637,#1306,#1307);
#1154=AXIS2_PLACEMENT_3D('',#1640,#1308,#1309);
#1155=AXIS2_PLACEMENT_3D('',#1643,#1312,#1313);
#1156=AXIS2_PLACEMENT_3D('',#1646,#1316,#1317);
#1157=AXIS2_PLACEMENT_3D('',#1649,#1318,#1319);
#1158=AXIS2_PLACEMENT_3D('',#1653,#1321,#1322);
#1159=AXIS2_PLACEMENT_3D('',#1655,#1324,#1325);
#1160=AXIS2_PLACEMENT_3D('',#1659,#1327,#1328);
#1161=AXIS2_PLACEMENT_3D('',#1661,#1330,#1331);
#1162=AXIS2_PLACEMENT_3D('',#1664,#1333,#1334);
#1163=AXIS2_PLACEMENT_3D('',#1665,#1335,#1336);
#1164=AXIS2_PLACEMENT_3D('',#1667,#1337,#1338);
#1165=AXIS2_PLACEMENT_3D('',#1684,#1340,#1341);
#1166=AXIS2_PLACEMENT_3D('',#1685,#1342,#1343);
#1167=AXIS2_PLACEMENT_3D('',#1687,#1344,#1345);
#1168=AXIS2_PLACEMENT_3D('',#1690,#1347,#1348);
#1169=AXIS2_PLACEMENT_3D('',#1691,#1349,#1350);
#1170=AXIS2_PLACEMENT_3D('',#1716,#1363,#1364);
#1171=AXIS2_PLACEMENT_3D('',#1717,#1365,#1366);
#1172=AXIS2_PLACEMENT_3D('',#1742,#1379,#1380);
#1173=AXIS2_PLACEMENT_3D('',#1745,#1383,#1384);
#1174=AXIS2_PLACEMENT_3D('',#1747,#1386,#1387);
#1175=AXIS2_PLACEMENT_3D('',#1749,#1389,#1390);
#1176=AXIS2_PLACEMENT_3D('',#1751,#1392,#1393);
#1177=AXIS2_PLACEMENT_3D('',#1753,#1395,#1396);
#1178=AXIS2_PLACEMENT_3D('',#1755,#1398,#1399);
#1179=AXIS2_PLACEMENT_3D('',#1757,#1401,#1402);
#1180=AXIS2_PLACEMENT_3D('',#1759,#1404,#1405);
#1181=AXIS2_PLACEMENT_3D('',#1761,#1407,#1408);
#1182=AXIS2_PLACEMENT_3D('',#1763,#1410,#1411);
#1183=AXIS2_PLACEMENT_3D('',#1765,#1413,#1414);
#1184=AXIS2_PLACEMENT_3D('',#1766,#1415,#1416);
#1185=AXIS2_PLACEMENT_3D('',#1767,#1417,#1418);
#1186=AXIS2_PLACEMENT_3D('',#1769,#1419,#1420);
#1187=AXIS2_PLACEMENT_3D('',#1770,#1421,#1422);
#1188=AXIS2_PLACEMENT_3D('',#1773,#1424,#1425);
#1189=AXIS2_PLACEMENT_3D('',#1774,#1426,#1427);
#1190=AXIS2_PLACEMENT_3D('',#1776,#1428,#1429);
#1191=AXIS2_PLACEMENT_3D('',#1778,#1430,#1431);
#1192=AXIS2_PLACEMENT_3D('',#1780,#1432,#1433);
#1193=AXIS2_PLACEMENT_3D('',#1782,#1434,#1435);
#1194=AXIS2_PLACEMENT_3D('',#1784,#1436,#1437);
#1195=AXIS2_PLACEMENT_3D('',#1786,#1438,#1439);
#1196=AXIS2_PLACEMENT_3D('',#1788,#1440,#1441);
#1197=AXIS2_PLACEMENT_3D('',#1790,#1442,#1443);
#1198=AXIS2_PLACEMENT_3D('',#1792,#1444,#1445);
#1199=AXIS2_PLACEMENT_3D('',#1794,#1446,#1447);
#1200=AXIS2_PLACEMENT_3D('',#1796,#1448,#1449);
#1201=AXIS2_PLACEMENT_3D('',#1798,#1450,#1451);
#1202=AXIS2_PLACEMENT_3D('',#1800,#1452,#1453);
#1203=AXIS2_PLACEMENT_3D('',#1802,#1454,#1455);
#1204=AXIS2_PLACEMENT_3D('',#1804,#1456,#1457);
#1205=AXIS2_PLACEMENT_3D('',#1806,#1458,#1459);
#1206=AXIS2_PLACEMENT_3D('',#1808,#1460,#1461);
#1207=AXIS2_PLACEMENT_3D('',#1810,#1462,#1463);
#1208=AXIS2_PLACEMENT_3D('',#1812,#1464,#1465);
#1209=AXIS2_PLACEMENT_3D('',#1813,#1466,#1467);
#1210=AXIS2_PLACEMENT_3D('',#1815,#1468,#1469);
#1211=AXIS2_PLACEMENT_3D('',#1816,#1470,#1471);
#1212=AXIS2_PLACEMENT_3D('',#1817,#1472,#1473);
#1213=AXIS2_PLACEMENT_3D('',#1819,#1474,#1475);
#1214=AXIS2_PLACEMENT_3D('',#1821,#1476,#1477);
#1215=AXIS2_PLACEMENT_3D('',#1823,#1478,#1479);
#1216=AXIS2_PLACEMENT_3D('',#1825,#1480,#1481);
#1217=AXIS2_PLACEMENT_3D('',#1827,#1482,#1483);
#1218=AXIS2_PLACEMENT_3D('',#1829,#1484,#1485);
#1219=AXIS2_PLACEMENT_3D('',#1831,#1486,#1487);
#1220=AXIS2_PLACEMENT_3D('',#1833,#1488,#1489);
#1221=AXIS2_PLACEMENT_3D('',#1835,#1490,#1491);
#1222=AXIS2_PLACEMENT_3D('',#1837,#1492,#1493);
#1223=AXIS2_PLACEMENT_3D('',#1839,#1494,#1495);
#1224=AXIS2_PLACEMENT_3D('',#1841,#1496,#1497);
#1225=AXIS2_PLACEMENT_3D('',#1843,#1498,#1499);
#1226=AXIS2_PLACEMENT_3D('',#1845,#1500,#1501);
#1227=AXIS2_PLACEMENT_3D('',#1847,#1502,#1503);
#1228=AXIS2_PLACEMENT_3D('',#1849,#1504,#1505);
#1229=AXIS2_PLACEMENT_3D('',#1851,#1506,#1507);
#1230=AXIS2_PLACEMENT_3D('',#1853,#1508,#1509);
#1231=AXIS2_PLACEMENT_3D('',#1855,#1510,#1511);
#1232=AXIS2_PLACEMENT_3D('',#1856,#1512,#1513);
#1233=AXIS2_PLACEMENT_3D('',#1858,#1515,#1516);
#1234=AXIS2_PLACEMENT_3D('',#1860,#1518,#1519);
#1235=AXIS2_PLACEMENT_3D('',#1862,#1521,#1522);
#1236=AXIS2_PLACEMENT_3D('',#1864,#1524,#1525);
#1237=AXIS2_PLACEMENT_3D('',#1866,#1527,#1528);
#1238=AXIS2_PLACEMENT_3D('',#1868,#1530,#1531);
#1239=AXIS2_PLACEMENT_3D('',#1870,#1533,#1534);
#1240=AXIS2_PLACEMENT_3D('',#1872,#1536,#1537);
#1241=AXIS2_PLACEMENT_3D('',#1874,#1539,#1540);
#1242=AXIS2_PLACEMENT_3D('',#1876,#1542,#1543);
#1243=AXIS2_PLACEMENT_3D('',#1878,#1545,#1546);
#1244=AXIS2_PLACEMENT_3D('',#1880,#1548,#1549);
#1245=AXIS2_PLACEMENT_3D('',#1882,#1551,#1552);
#1246=AXIS2_PLACEMENT_3D('',#1884,#1554,#1555);
#1247=AXIS2_PLACEMENT_3D('',#1886,#1557,#1558);
#1248=AXIS2_PLACEMENT_3D('',#1888,#1560,#1561);
#1249=AXIS2_PLACEMENT_3D('',#1890,#1563,#1564);
#1250=AXIS2_PLACEMENT_3D('',#1892,#1566,#1567);
#1251=AXIS2_PLACEMENT_3D('',#1894,#1569,#1570);
#1252=AXIS2_PLACEMENT_3D('',#1896,#1571,#1572);
#1253=AXIS2_PLACEMENT_3D('',#1899,#1574,#1575);
#1254=AXIS2_PLACEMENT_3D('',#1900,#1576,#1577);
#1255=AXIS2_PLACEMENT_3D('',#1901,#1578,#1579);
#1256=DIRECTION('axis',(0.,0.,1.));
#1257=DIRECTION('refdir',(1.,0.,0.));
#1258=DIRECTION('center_axis',(0.,-1.,0.));
#1259=DIRECTION('ref_axis',(0.,0.,-1.));
#1260=DIRECTION('center_axis',(0.,1.,0.));
#1261=DIRECTION('ref_axis',(1.,0.,0.));
#1262=DIRECTION('center_axis',(-1.,0.,-1.22464679914735E-16));
#1263=DIRECTION('ref_axis',(-1.22464679914735E-16,0.,1.));
#1264=DIRECTION('center_axis',(0.,-1.,0.));
#1265=DIRECTION('ref_axis',(1.,0.,0.));
#1266=DIRECTION('center_axis',(0.,-1.,0.));
#1267=DIRECTION('ref_axis',(1.,0.,0.));
#1268=DIRECTION('center_axis',(0.,1.,0.));
#1269=DIRECTION('ref_axis',(0.,0.,1.));
#1270=DIRECTION('center_axis',(0.,-1.,0.));
#1271=DIRECTION('ref_axis',(-1.,0.,0.));
#1272=DIRECTION('center_axis',(0.,1.,0.));
#1273=DIRECTION('ref_axis',(1.,0.,0.));
#1274=DIRECTION('center_axis',(0.,1.,0.));
#1275=DIRECTION('ref_axis',(1.,0.,0.));
#1276=DIRECTION('',(0.,-1.,0.));
#1277=DIRECTION('center_axis',(0.,1.,0.));
#1278=DIRECTION('ref_axis',(1.,0.,0.));
#1279=DIRECTION('center_axis',(0.,1.,0.));
#1280=DIRECTION('ref_axis',(0.,0.,1.));
#1281=DIRECTION('center_axis',(-1.,0.,1.22464679914735E-16));
#1282=DIRECTION('ref_axis',(-1.22464679914735E-16,0.,-1.));
#1283=DIRECTION('center_axis',(0.,1.,0.));
#1284=DIRECTION('ref_axis',(-1.,0.,0.));
#1285=DIRECTION('center_axis',(0.,1.,0.));
#1286=DIRECTION('ref_axis',(-1.,0.,0.));
#1287=DIRECTION('center_axis',(0.,1.,0.));
#1288=DIRECTION('ref_axis',(-1.,0.,0.));
#1289=DIRECTION('',(0.,1.,0.));
#1290=DIRECTION('center_axis',(0.,1.,0.));
#1291=DIRECTION('ref_axis',(-1.,0.,0.));
#1292=DIRECTION('center_axis',(1.,0.,6.3441315692866E-16));
#1293=DIRECTION('ref_axis',(-6.2450045135165E-16,-0.26,0.965608616365865));
#1294=DIRECTION('center_axis',(0.707106781186547,0.,0.707106781186548));
#1295=DIRECTION('ref_axis',(-0.707106781186548,-4.9065389333868E-17,0.707106781186548));
#1296=DIRECTION('',(1.,0.,6.3441315692866E-16));
#1297=DIRECTION('center_axis',(-1.,5.55111512312578E-16,-1.00029558047969E-15));
#1298=DIRECTION('ref_axis',(-5.55111512312578E-16,-1.,0.));
#1299=DIRECTION('',(-1.,0.,-6.3441315692866E-16));
#1300=DIRECTION('center_axis',(1.,0.,-5.74882517517065E-16));
#1301=DIRECTION('ref_axis',(0.,-1.,0.));
#1302=DIRECTION('center_axis',(0.,-1.,0.));
#1303=DIRECTION('ref_axis',(-3.1720657846433E-16,0.,-1.));
#1304=DIRECTION('center_axis',(0.,1.,0.));
#1305=DIRECTION('ref_axis',(-2.83078842473109E-15,0.,-1.));
#1306=DIRECTION('center_axis',(-1.,0.,0.));
#1307=DIRECTION('ref_axis',(0.,-0.26,-0.965608616365865));
#1308=DIRECTION('center_axis',(0.707106781186548,0.,-0.707106781186548));
#1309=DIRECTION('ref_axis',(-0.707106781186547,2.4532694666934E-17,-0.707106781186547));
#1310=DIRECTION('',(1.,0.,0.));
#1311=DIRECTION('',(-1.,0.,0.));
#1312=DIRECTION('center_axis',(0.,0.,1.));
#1313=DIRECTION('ref_axis',(-0.965608616365865,-0.26,0.));
#1314=DIRECTION('',(0.,0.,-1.));
#1315=DIRECTION('',(0.,0.,1.));
#1316=DIRECTION('center_axis',(0.,0.,-1.));
#1317=DIRECTION('ref_axis',(0.965608616365865,-0.26,0.));
#1318=DIRECTION('center_axis',(0.707106781186547,0.,-0.707106781186548));
#1319=DIRECTION('ref_axis',(0.707106781186547,0.,0.707106781186547));
#1320=DIRECTION('',(0.,0.,-1.));
#1321=DIRECTION('center_axis',(0.707106781186548,0.,0.707106781186547));
#1322=DIRECTION('ref_axis',(0.707106781186547,4.9065389333868E-17,-0.707106781186548));
#1323=DIRECTION('',(0.,0.,1.));
#1324=DIRECTION('center_axis',(0.,1.,0.));
#1325=DIRECTION('ref_axis',(0.,0.,1.));
#1326=DIRECTION('',(1.,0.,-6.34413156928661E-16));
#1327=DIRECTION('center_axis',(0.,1.,0.));
#1328=DIRECTION('ref_axis',(7.07697106182772E-16,0.,1.));
#1329=DIRECTION('',(-1.,0.,0.));
#1330=DIRECTION('center_axis',(1.,0.,-6.34413156928661E-16));
#1331=DIRECTION('ref_axis',(5.55111512312578E-16,-0.26,0.965608616365865));
#1332=DIRECTION('',(-1.,0.,6.34413156928661E-16));
#1333=DIRECTION('center_axis',(-1.,0.,0.));
#1334=DIRECTION('ref_axis',(0.,-1.,0.));
#1335=DIRECTION('center_axis',(-1.,0.,0.));
#1336=DIRECTION('ref_axis',(0.,-0.26,-0.965608616365865));
#1337=DIRECTION('center_axis',(1.,5.55111512312578E-16,-1.49469454554437E-16));
#1338=DIRECTION('ref_axis',(5.55111512312578E-16,-1.,0.));
#1339=DIRECTION('',(1.,0.,0.));
#1340=DIRECTION('center_axis',(0.,-1.,0.));
#1341=DIRECTION('ref_axis',(0.,0.,-1.));
#1342=DIRECTION('center_axis',(0.,1.,0.));
#1343=DIRECTION('ref_axis',(-1.,0.,0.));
#1344=DIRECTION('center_axis',(0.,1.,0.));
#1345=DIRECTION('ref_axis',(-1.,0.,0.));
#1346=DIRECTION('',(0.,1.,0.));
#1347=DIRECTION('center_axis',(0.,1.,0.));
#1348=DIRECTION('ref_axis',(-1.,0.,0.));
#1349=DIRECTION('center_axis',(0.,1.,0.));
#1350=DIRECTION('ref_axis',(0.,0.,1.));
#1351=DIRECTION('',(0.,0.,-1.));
#1352=DIRECTION('',(-1.,0.,0.));
#1353=DIRECTION('',(0.,0.,-1.));
#1354=DIRECTION('',(-1.,0.,5.55111512312578E-16));
#1355=DIRECTION('',(0.,0.,1.));
#1356=DIRECTION('',(-1.,0.,0.));
#1357=DIRECTION('',(0.,0.,1.));
#1358=DIRECTION('',(1.,0.,0.));
#1359=DIRECTION('',(0.,0.,1.));
#1360=DIRECTION('',(1.,0.,0.));
#1361=DIRECTION('',(0.,0.,-1.));
#1362=DIRECTION('',(1.,0.,0.));
#1363=DIRECTION('center_axis',(0.,-1.,0.));
#1364=DIRECTION('ref_axis',(0.,0.,-1.));
#1365=DIRECTION('center_axis',(0.,1.,0.));
#1366=DIRECTION('ref_axis',(0.,0.,1.));
#1367=DIRECTION('',(1.,0.,0.));
#1368=DIRECTION('',(0.,0.,1.));
#1369=DIRECTION('',(-1.,0.,0.));
#1370=DIRECTION('',(0.,0.,1.));
#1371=DIRECTION('',(-1.,0.,0.));
#1372=DIRECTION('',(0.,0.,-1.));
#1373=DIRECTION('',(-1.,0.,0.));
#1374=DIRECTION('',(0.,0.,-1.));
#1375=DIRECTION('',(1.,0.,0.));
#1376=DIRECTION('',(0.,0.,-1.));
#1377=DIRECTION('',(1.,0.,-5.55111512312578E-16));
#1378=DIRECTION('',(0.,0.,1.));
#1379=DIRECTION('center_axis',(1.,0.,0.));
#1380=DIRECTION('ref_axis',(0.,0.,-1.));
#1381=DIRECTION('',(0.,1.,0.));
#1382=DIRECTION('',(0.,1.,0.));
#1383=DIRECTION('center_axis',(0.,0.,-1.));
#1384=DIRECTION('ref_axis',(-1.,0.,0.));
#1385=DIRECTION('',(0.,1.,0.));
#1386=DIRECTION('center_axis',(-1.,0.,0.));
#1387=DIRECTION('ref_axis',(0.,0.,1.));
#1388=DIRECTION('',(0.,1.,0.));
#1389=DIRECTION('center_axis',(0.,0.,-1.));
#1390=DIRECTION('ref_axis',(-1.,0.,0.));
#1391=DIRECTION('',(0.,1.,0.));
#1392=DIRECTION('center_axis',(-1.,0.,0.));
#1393=DIRECTION('ref_axis',(0.,0.,1.));
#1394=DIRECTION('',(0.,1.,0.));
#1395=DIRECTION('center_axis',(0.,0.,1.));
#1396=DIRECTION('ref_axis',(1.,0.,0.));
#1397=DIRECTION('',(0.,1.,0.));
#1398=DIRECTION('center_axis',(0.,0.,-1.));
#1399=DIRECTION('ref_axis',(-1.,0.,0.));
#1400=DIRECTION('',(0.,1.,0.));
#1401=DIRECTION('center_axis',(1.,0.,0.));
#1402=DIRECTION('ref_axis',(0.,0.,-1.));
#1403=DIRECTION('',(0.,1.,0.));
#1404=DIRECTION('center_axis',(0.,0.,1.));
#1405=DIRECTION('ref_axis',(1.,0.,0.));
#1406=DIRECTION('',(0.,1.,0.));
#1407=DIRECTION('center_axis',(1.,0.,0.));
#1408=DIRECTION('ref_axis',(0.,0.,-1.));
#1409=DIRECTION('',(0.,1.,0.));
#1410=DIRECTION('center_axis',(5.55111512312578E-16,0.,1.));
#1411=DIRECTION('ref_axis',(1.,0.,-5.55111512312578E-16));
#1412=DIRECTION('',(0.,1.,0.));
#1413=DIRECTION('center_axis',(-1.,0.,0.));
#1414=DIRECTION('ref_axis',(0.,0.,1.));
#1415=DIRECTION('center_axis',(0.,1.,0.));
#1416=DIRECTION('ref_axis',(0.,0.,1.));
#1417=DIRECTION('center_axis',(0.,1.,0.));
#1418=DIRECTION('ref_axis',(0.,0.,1.));
#1419=DIRECTION('center_axis',(0.,-1.,0.));
#1420=DIRECTION('ref_axis',(-1.,0.,0.));
#1421=DIRECTION('center_axis',(0.,1.,0.));
#1422=DIRECTION('ref_axis',(-1.,0.,0.));
#1423=DIRECTION('',(0.,1.,0.));
#1424=DIRECTION('center_axis',(0.,1.,0.));
#1425=DIRECTION('ref_axis',(-1.,0.,0.));
#1426=DIRECTION('center_axis',(0.,1.,0.));
#1427=DIRECTION('ref_axis',(0.,0.,1.));
#1428=DIRECTION('center_axis',(0.,-1.,0.));
#1429=DIRECTION('ref_axis',(1.,0.,0.));
#1430=DIRECTION('center_axis',(0.,-1.,0.));
#1431=DIRECTION('ref_axis',(1.,0.,0.));
#1432=DIRECTION('center_axis',(0.,-1.,0.));
#1433=DIRECTION('ref_axis',(1.,0.,0.));
#1434=DIRECTION('center_axis',(0.,-1.,0.));
#1435=DIRECTION('ref_axis',(1.,0.,0.));
#1436=DIRECTION('center_axis',(0.,-1.,0.));
#1437=DIRECTION('ref_axis',(1.,0.,0.));
#1438=DIRECTION('center_axis',(0.,-1.,0.));
#1439=DIRECTION('ref_axis',(1.,0.,0.));
#1440=DIRECTION('center_axis',(0.,-1.,0.));
#1441=DIRECTION('ref_axis',(1.,0.,0.));
#1442=DIRECTION('center_axis',(0.,-1.,0.));
#1443=DIRECTION('ref_axis',(1.,0.,0.));
#1444=DIRECTION('center_axis',(0.,-1.,0.));
#1445=DIRECTION('ref_axis',(1.,0.,0.));
#1446=DIRECTION('center_axis',(0.,-1.,0.));
#1447=DIRECTION('ref_axis',(1.,0.,0.));
#1448=DIRECTION('center_axis',(0.,-1.,0.));
#1449=DIRECTION('ref_axis',(1.,0.,0.));
#1450=DIRECTION('center_axis',(0.,-1.,0.));
#1451=DIRECTION('ref_axis',(1.,0.,0.));
#1452=DIRECTION('center_axis',(0.,-1.,0.));
#1453=DIRECTION('ref_axis',(1.,0.,0.));
#1454=DIRECTION('center_axis',(0.,-1.,0.));
#1455=DIRECTION('ref_axis',(1.,0.,0.));
#1456=DIRECTION('center_axis',(0.,-1.,0.));
#1457=DIRECTION('ref_axis',(1.,0.,0.));
#1458=DIRECTION('center_axis',(0.,-1.,0.));
#1459=DIRECTION('ref_axis',(1.,0.,0.));
#1460=DIRECTION('center_axis',(0.,-1.,0.));
#1461=DIRECTION('ref_axis',(1.,0.,0.));
#1462=DIRECTION('center_axis',(0.,-1.,0.));
#1463=DIRECTION('ref_axis',(1.,0.,0.));
#1464=DIRECTION('center_axis',(0.,-1.,0.));
#1465=DIRECTION('ref_axis',(1.,0.,0.));
#1466=DIRECTION('center_axis',(0.,1.,0.));
#1467=DIRECTION('ref_axis',(0.,0.,1.));
#1468=DIRECTION('center_axis',(0.,-1.,0.));
#1469=DIRECTION('ref_axis',(1.,0.,0.));
#1470=DIRECTION('center_axis',(-1.,0.,1.22464679914735E-16));
#1471=DIRECTION('ref_axis',(-1.22464679914735E-16,0.,-1.));
#1472=DIRECTION('center_axis',(0.,1.,0.));
#1473=DIRECTION('ref_axis',(0.,0.,1.));
#1474=DIRECTION('center_axis',(0.,-1.,0.));
#1475=DIRECTION('ref_axis',(1.,0.,0.));
#1476=DIRECTION('center_axis',(0.,-1.,0.));
#1477=DIRECTION('ref_axis',(1.,0.,0.));
#1478=DIRECTION('center_axis',(0.,-1.,0.));
#1479=DIRECTION('ref_axis',(1.,0.,0.));
#1480=DIRECTION('center_axis',(0.,-1.,0.));
#1481=DIRECTION('ref_axis',(1.,0.,0.));
#1482=DIRECTION('center_axis',(0.,-1.,0.));
#1483=DIRECTION('ref_axis',(1.,0.,0.));
#1484=DIRECTION('center_axis',(0.,-1.,0.));
#1485=DIRECTION('ref_axis',(1.,0.,0.));
#1486=DIRECTION('center_axis',(0.,-1.,0.));
#1487=DIRECTION('ref_axis',(1.,0.,0.));
#1488=DIRECTION('center_axis',(0.,-1.,0.));
#1489=DIRECTION('ref_axis',(1.,0.,0.));
#1490=DIRECTION('center_axis',(0.,-1.,0.));
#1491=DIRECTION('ref_axis',(1.,0.,0.));
#1492=DIRECTION('center_axis',(0.,-1.,0.));
#1493=DIRECTION('ref_axis',(1.,0.,0.));
#1494=DIRECTION('center_axis',(0.,-1.,0.));
#1495=DIRECTION('ref_axis',(1.,0.,0.));
#1496=DIRECTION('center_axis',(0.,-1.,0.));
#1497=DIRECTION('ref_axis',(1.,0.,0.));
#1498=DIRECTION('center_axis',(0.,-1.,0.));
#1499=DIRECTION('ref_axis',(1.,0.,0.));
#1500=DIRECTION('center_axis',(0.,-1.,0.));
#1501=DIRECTION('ref_axis',(1.,0.,0.));
#1502=DIRECTION('center_axis',(0.,-1.,0.));
#1503=DIRECTION('ref_axis',(1.,0.,0.));
#1504=DIRECTION('center_axis',(0.,-1.,0.));
#1505=DIRECTION('ref_axis',(1.,0.,0.));
#1506=DIRECTION('center_axis',(0.,-1.,0.));
#1507=DIRECTION('ref_axis',(1.,0.,0.));
#1508=DIRECTION('center_axis',(0.,-1.,0.));
#1509=DIRECTION('ref_axis',(1.,0.,0.));
#1510=DIRECTION('center_axis',(0.,-1.,0.));
#1511=DIRECTION('ref_axis',(1.,0.,0.));
#1512=DIRECTION('center_axis',(0.,1.,0.));
#1513=DIRECTION('ref_axis',(1.,0.,0.));
#1514=DIRECTION('',(0.,1.,0.));
#1515=DIRECTION('center_axis',(0.,1.,0.));
#1516=DIRECTION('ref_axis',(1.,0.,0.));
#1517=DIRECTION('',(0.,1.,0.));
#1518=DIRECTION('center_axis',(0.,1.,0.));
#1519=DIRECTION('ref_axis',(1.,0.,0.));
#1520=DIRECTION('',(0.,1.,0.));
#1521=DIRECTION('center_axis',(0.,1.,0.));
#1522=DIRECTION('ref_axis',(1.,0.,0.));
#1523=DIRECTION('',(0.,1.,0.));
#1524=DIRECTION('center_axis',(0.,1.,0.));
#1525=DIRECTION('ref_axis',(1.,0.,0.));
#1526=DIRECTION('',(0.,1.,0.));
#1527=DIRECTION('center_axis',(0.,1.,0.));
#1528=DIRECTION('ref_axis',(1.,0.,0.));
#1529=DIRECTION('',(0.,1.,0.));
#1530=DIRECTION('center_axis',(0.,1.,0.));
#1531=DIRECTION('ref_axis',(1.,0.,0.));
#1532=DIRECTION('',(0.,1.,0.));
#1533=DIRECTION('center_axis',(0.,1.,0.));
#1534=DIRECTION('ref_axis',(1.,0.,0.));
#1535=DIRECTION('',(0.,1.,0.));
#1536=DIRECTION('center_axis',(0.,1.,0.));
#1537=DIRECTION('ref_axis',(1.,0.,0.));
#1538=DIRECTION('',(0.,1.,0.));
#1539=DIRECTION('center_axis',(0.,1.,0.));
#1540=DIRECTION('ref_axis',(1.,0.,0.));
#1541=DIRECTION('',(0.,1.,0.));
#1542=DIRECTION('center_axis',(0.,1.,0.));
#1543=DIRECTION('ref_axis',(1.,0.,0.));
#1544=DIRECTION('',(0.,1.,0.));
#1545=DIRECTION('center_axis',(0.,1.,0.));
#1546=DIRECTION('ref_axis',(1.,0.,0.));
#1547=DIRECTION('',(0.,1.,0.));
#1548=DIRECTION('center_axis',(0.,1.,0.));
#1549=DIRECTION('ref_axis',(1.,0.,0.));
#1550=DIRECTION('',(0.,1.,0.));
#1551=DIRECTION('center_axis',(0.,1.,0.));
#1552=DIRECTION('ref_axis',(1.,0.,0.));
#1553=DIRECTION('',(0.,1.,0.));
#1554=DIRECTION('center_axis',(0.,1.,0.));
#1555=DIRECTION('ref_axis',(1.,0.,0.));
#1556=DIRECTION('',(0.,1.,0.));
#1557=DIRECTION('center_axis',(0.,1.,0.));
#1558=DIRECTION('ref_axis',(1.,0.,0.));
#1559=DIRECTION('',(0.,1.,0.));
#1560=DIRECTION('center_axis',(0.,1.,0.));
#1561=DIRECTION('ref_axis',(1.,0.,0.));
#1562=DIRECTION('',(0.,1.,0.));
#1563=DIRECTION('center_axis',(0.,1.,0.));
#1564=DIRECTION('ref_axis',(1.,0.,0.));
#1565=DIRECTION('',(0.,1.,0.));
#1566=DIRECTION('center_axis',(0.,1.,0.));
#1567=DIRECTION('ref_axis',(1.,0.,0.));
#1568=DIRECTION('',(0.,1.,0.));
#1569=DIRECTION('center_axis',(0.,1.,0.));
#1570=DIRECTION('ref_axis',(-1.,0.,0.));
#1571=DIRECTION('center_axis',(0.,1.,0.));
#1572=DIRECTION('ref_axis',(-1.,0.,0.));
#1573=DIRECTION('',(0.,-1.,0.));
#1574=DIRECTION('center_axis',(0.,-1.,0.));
#1575=DIRECTION('ref_axis',(-1.,0.,0.));
#1576=DIRECTION('center_axis',(0.,1.,0.));
#1577=DIRECTION('ref_axis',(0.,0.,1.));
#1578=DIRECTION('center_axis',(0.,1.,0.));
#1579=DIRECTION('ref_axis',(0.,0.,1.));
#1580=CARTESIAN_POINT('',(0.,0.,0.));
#1581=CARTESIAN_POINT('Origin',(0.,0.1,0.));
#1582=CARTESIAN_POINT('',(-5.81707229594993E-16,0.,4.75));
#1583=CARTESIAN_POINT('Origin',(0.,0.,0.));
#1584=CARTESIAN_POINT('',(-5.93953697586466E-16,0.1,4.85));
#1585=CARTESIAN_POINT('Origin',(-5.81707229594993E-16,0.1,4.75));
#1586=CARTESIAN_POINT('',(-4.85,0.1,-5.93953697586466E-16));
#1587=CARTESIAN_POINT('Origin',(0.,0.1,0.));
#1588=CARTESIAN_POINT('Origin',(0.,0.1,0.));
#1589=CARTESIAN_POINT('Origin',(2.40256111332404E-16,0.,0.));
#1590=CARTESIAN_POINT('',(-5.59925166255676E-16,0.,-4.57213595499958));
#1591=CARTESIAN_POINT('Origin',(0.,0.,0.));
#1592=CARTESIAN_POINT('Origin',(0.,0.,0.));
#1593=CARTESIAN_POINT('',(-4.85,4.5,5.93953697586466E-16));
#1594=CARTESIAN_POINT('',(-5.93953697586466E-16,4.5,-4.85));
#1595=CARTESIAN_POINT('Origin',(0.,4.5,0.));
#1596=CARTESIAN_POINT('',(-4.85,0.,5.93953697586466E-16));
#1597=CARTESIAN_POINT('Origin',(0.,4.5,0.));
#1598=CARTESIAN_POINT('Origin',(0.,0.1,0.));
#1599=CARTESIAN_POINT('',(-5.47678698264203E-16,0.1,-4.47213595499958));
#1600=CARTESIAN_POINT('Origin',(-5.59925166255676E-16,0.1,-4.57213595499958));
#1601=CARTESIAN_POINT('',(4.47213595499958,0.1,-5.47678698264203E-16));
#1602=CARTESIAN_POINT('Origin',(0.,0.1,0.));
#1603=CARTESIAN_POINT('Origin',(0.,0.1,0.));
#1604=CARTESIAN_POINT('Origin',(0.,0.,0.));
#1605=CARTESIAN_POINT('',(4.47213595499958,0.3,5.47678698264203E-16));
#1606=CARTESIAN_POINT('',(4.47213595499958,0.,-5.47678698264203E-16));
#1607=CARTESIAN_POINT('Origin',(0.,0.3,0.));
#1608=CARTESIAN_POINT('Origin',(0.249999999999999,0.44,2.19219569181707));
#1609=CARTESIAN_POINT('',(0.5,0.31,2.675));
#1610=CARTESIAN_POINT('',(0.982804308182932,-0.06,2.19219569181707));
#1611=CARTESIAN_POINT('Origin',(0.982804308182933,0.44,2.19219569181707));
#1612=CARTESIAN_POINT('',(1.375,-0.06,2.19219569181707));
#1613=CARTESIAN_POINT('',(0.249999999999999,-0.06,2.19219569181707));
#1614=CARTESIAN_POINT('',(1.375,0.31,2.675));
#1615=CARTESIAN_POINT('Origin',(1.375,0.44,2.19219569181707));
#1616=CARTESIAN_POINT('',(0.249999999999999,0.31,2.675));
#1617=CARTESIAN_POINT('Ctrl Pts',(1.375,0.31,2.675));
#1618=CARTESIAN_POINT('Ctrl Pts',(2.25,0.31,2.675));
#1619=CARTESIAN_POINT('Ctrl Pts',(2.25,0.31,1.8));
#1620=CARTESIAN_POINT('Ctrl Pts',(2.25,0.31,0.924999999999998));
#1621=CARTESIAN_POINT('Ctrl Pts',(1.375,0.31,0.925));
#1622=CARTESIAN_POINT('Ctrl Pts',(1.375,-0.06,2.57537371418447));
#1623=CARTESIAN_POINT('Ctrl Pts',(2.15037371418448,-0.06,2.57537371418447));
#1624=CARTESIAN_POINT('Ctrl Pts',(2.15037371418447,-0.06,1.8));
#1625=CARTESIAN_POINT('Ctrl Pts',(2.15037371418447,-0.06,1.02462628581552));
#1626=CARTESIAN_POINT('Ctrl Pts',(1.375,-0.06,1.02462628581553));
#1627=CARTESIAN_POINT('Ctrl Pts',(1.375,-0.06,2.19219569181707));
#1628=CARTESIAN_POINT('Ctrl Pts',(1.76719569181707,-0.06,2.19219569181707));
#1629=CARTESIAN_POINT('Ctrl Pts',(1.76719569181707,-0.06,1.8));
#1630=CARTESIAN_POINT('Ctrl Pts',(1.76719569181707,-0.06,1.40780430818293));
#1631=CARTESIAN_POINT('Ctrl Pts',(1.375,-0.06,1.40780430818293));
#1632=CARTESIAN_POINT('',(1.375,-0.06,1.40780430818293));
#1633=CARTESIAN_POINT('',(1.375,0.31,0.925));
#1634=CARTESIAN_POINT('Origin',(1.375,0.44,1.40780430818293));
#1635=CARTESIAN_POINT('Origin',(1.375,0.31,1.8));
#1636=CARTESIAN_POINT('Origin',(1.375,-0.06,1.8));
#1637=CARTESIAN_POINT('Origin',(0.6875,0.44,1.40780430818293));
#1638=CARTESIAN_POINT('',(0.982804308182932,-0.06,1.40780430818293));
#1639=CARTESIAN_POINT('',(0.5,0.31,0.925));
#1640=CARTESIAN_POINT('Origin',(0.982804308182932,0.44,1.40780430818293));
#1641=CARTESIAN_POINT('',(0.6875,0.31,0.925));
#1642=CARTESIAN_POINT('',(0.6875,-0.06,1.40780430818293));
#1643=CARTESIAN_POINT('Origin',(0.982804308182932,0.44,0.4625));
#1644=CARTESIAN_POINT('',(0.5,0.31,0.4625));
#1645=CARTESIAN_POINT('',(0.982804308182932,-0.06,0.4625));
#1646=CARTESIAN_POINT('Origin',(-0.982804308182932,0.44,1.3375));
#1647=CARTESIAN_POINT('',(-0.5,0.31,2.675));
#1648=CARTESIAN_POINT('',(-0.982804308182932,-0.06,2.19219569181707));
#1649=CARTESIAN_POINT('Origin',(-0.982804308182932,0.44,2.19219569181707));
#1650=CARTESIAN_POINT('',(-0.982804308182932,-0.06,1.40780430818293));
#1651=CARTESIAN_POINT('',(-0.982804308182932,-0.06,1.3375));
#1652=CARTESIAN_POINT('',(-0.5,0.31,0.925));
#1653=CARTESIAN_POINT('Origin',(-0.982804308182932,0.44,1.40780430818293));
#1654=CARTESIAN_POINT('',(-0.5,0.31,1.3375));
#1655=CARTESIAN_POINT('Origin',(-1.16851023412673,-0.06,1.8));
#1656=CARTESIAN_POINT('',(-1.375,-0.06,2.19219569181707));
#1657=CARTESIAN_POINT('',(-0.6875,-0.06,2.19219569181707));
#1658=CARTESIAN_POINT('',(-1.375,-0.06,1.40780430818293));
#1659=CARTESIAN_POINT('Origin',(-1.375,-0.06,1.8));
#1660=CARTESIAN_POINT('',(-0.25,-0.06,1.40780430818293));
#1661=CARTESIAN_POINT('Origin',(-0.6875,0.44,2.19219569181707));
#1662=CARTESIAN_POINT('',(-1.375,0.31,2.675));
#1663=CARTESIAN_POINT('',(-0.687499999999999,0.31,2.675));
#1664=CARTESIAN_POINT('Origin',(-1.375,0.44,2.19219569181707));
#1665=CARTESIAN_POINT('Origin',(-0.25,0.44,1.40780430818293));
#1666=CARTESIAN_POINT('',(-1.375,0.31,0.925));
#1667=CARTESIAN_POINT('Origin',(-1.375,0.44,1.40780430818293));
#1668=CARTESIAN_POINT('',(-0.25,0.31,0.925));
#1669=CARTESIAN_POINT('Ctrl Pts',(-1.375,0.31,0.925));
#1670=CARTESIAN_POINT('Ctrl Pts',(-2.25,0.31,0.925));
#1671=CARTESIAN_POINT('Ctrl Pts',(-2.25,0.31,1.8));
#1672=CARTESIAN_POINT('Ctrl Pts',(-2.25,0.31,2.675));
#1673=CARTESIAN_POINT('Ctrl Pts',(-1.375,0.31,2.675));
#1674=CARTESIAN_POINT('Ctrl Pts',(-1.375,-0.0600000000000001,1.02462628581553));
#1675=CARTESIAN_POINT('Ctrl Pts',(-2.15037371418448,-0.0600000000000001,
1.02462628581553));
#1676=CARTESIAN_POINT('Ctrl Pts',(-2.15037371418448,-0.0600000000000001,
1.8));
#1677=CARTESIAN_POINT('Ctrl Pts',(-2.15037371418447,-0.06,2.57537371418448));
#1678=CARTESIAN_POINT('Ctrl Pts',(-1.375,-0.06,2.57537371418448));
#1679=CARTESIAN_POINT('Ctrl Pts',(-1.375,-0.06,1.40780430818293));
#1680=CARTESIAN_POINT('Ctrl Pts',(-1.76719569181707,-0.06,1.40780430818293));
#1681=CARTESIAN_POINT('Ctrl Pts',(-1.76719569181707,-0.06,1.8));
#1682=CARTESIAN_POINT('Ctrl Pts',(-1.76719569181707,-0.06,2.19219569181707));
#1683=CARTESIAN_POINT('Ctrl Pts',(-1.375,-0.06,2.19219569181707));
#1684=CARTESIAN_POINT('Origin',(-1.375,0.31,1.8));
#1685=CARTESIAN_POINT('Origin',(0.,0.,0.));
#1686=CARTESIAN_POINT('',(3.97213595499958,0.3,-4.86446358306835E-16));
#1687=CARTESIAN_POINT('Origin',(0.,0.3,0.));
#1688=CARTESIAN_POINT('',(3.97213595499958,0.31,4.86446358306835E-16));
#1689=CARTESIAN_POINT('',(3.97213595499958,0.,-4.86446358306835E-16));
#1690=CARTESIAN_POINT('Origin',(0.,0.31,0.));
#1691=CARTESIAN_POINT('Origin',(-3.89915666070324E-16,0.31,5.82297449241258E-17));
#1692=CARTESIAN_POINT('',(-1.875,0.31,-2.7));
#1693=CARTESIAN_POINT('',(-1.875,0.31,-3.2));
#1694=CARTESIAN_POINT('',(-1.875,0.31,-1.6));
#1695=CARTESIAN_POINT('',(-1.375,0.31,-2.7));
#1696=CARTESIAN_POINT('',(-0.9375,0.31,-2.7));
#1697=CARTESIAN_POINT('',(-1.375,0.31,-2.2));
#1698=CARTESIAN_POINT('',(-1.375,0.31,-1.35));
#1699=CARTESIAN_POINT('',(-0.875,0.31,-2.2));
#1700=CARTESIAN_POINT('',(-0.687500000000001,0.31,-2.2));
#1701=CARTESIAN_POINT('',(-0.875,0.31,-2.7));
#1702=CARTESIAN_POINT('',(-0.875,0.31,-1.1));
#1703=CARTESIAN_POINT('',(-0.375,0.31,-2.7));
#1704=CARTESIAN_POINT('',(-0.4375,0.31,-2.7));
#1705=CARTESIAN_POINT('',(-0.375,0.31,-3.2));
#1706=CARTESIAN_POINT('',(-0.375,0.31,-1.35));
#1707=CARTESIAN_POINT('',(-0.875,0.31,-3.2));
#1708=CARTESIAN_POINT('',(-0.1875,0.31,-3.2));
#1709=CARTESIAN_POINT('',(-0.875,0.31,-3.7));
#1710=CARTESIAN_POINT('',(-0.875,0.31,-1.6));
#1711=CARTESIAN_POINT('',(-1.375,0.31,-3.7));
#1712=CARTESIAN_POINT('',(-0.4375,0.31,-3.7));
#1713=CARTESIAN_POINT('',(-1.375,0.31,-3.2));
#1714=CARTESIAN_POINT('',(-1.375,0.31,-1.85));
#1715=CARTESIAN_POINT('',(-0.6875,0.31,-3.2));
#1716=CARTESIAN_POINT('Origin',(1.16851023412673,-0.06,1.8));
#1717=CARTESIAN_POINT('Origin',(-1.125,0.25,-2.95));
#1718=CARTESIAN_POINT('',(-1.875,0.25,-2.7));
#1719=CARTESIAN_POINT('',(-1.375,0.25,-2.7));
#1720=CARTESIAN_POINT('',(-1.5,0.25,-2.7));
#1721=CARTESIAN_POINT('',(-1.875,0.25,-3.2));
#1722=CARTESIAN_POINT('',(-1.875,0.25,-3.075));
#1723=CARTESIAN_POINT('',(-1.375,0.25,-3.2));
#1724=CARTESIAN_POINT('',(-1.25,0.25,-3.2));
#1725=CARTESIAN_POINT('',(-1.375,0.25,-3.7));
#1726=CARTESIAN_POINT('',(-1.375,0.25,-3.325));
#1727=CARTESIAN_POINT('',(-0.875,0.25,-3.7));
#1728=CARTESIAN_POINT('',(-1.,0.25,-3.7));
#1729=CARTESIAN_POINT('',(-0.875,0.25,-3.2));
#1730=CARTESIAN_POINT('',(-0.875,0.25,-3.075));
#1731=CARTESIAN_POINT('',(-0.375,0.25,-3.2));
#1732=CARTESIAN_POINT('',(-0.75,0.25,-3.2));
#1733=CARTESIAN_POINT('',(-0.375,0.25,-2.7));
#1734=CARTESIAN_POINT('',(-0.375,0.25,-2.825));
#1735=CARTESIAN_POINT('',(-0.875,0.25,-2.7));
#1736=CARTESIAN_POINT('',(-1.,0.25,-2.7));
#1737=CARTESIAN_POINT('',(-0.875,0.25,-2.2));
#1738=CARTESIAN_POINT('',(-0.875,0.25,-2.575));
#1739=CARTESIAN_POINT('',(-1.375,0.25,-2.2));
#1740=CARTESIAN_POINT('',(-1.25,0.25,-2.2));
#1741=CARTESIAN_POINT('',(-1.375,0.25,-2.825));
#1742=CARTESIAN_POINT('Origin',(-0.875,0.,-3.2));
#1743=CARTESIAN_POINT('',(-0.875,0.,-3.7));
#1744=CARTESIAN_POINT('',(-0.875,0.,-3.2));
#1745=CARTESIAN_POINT('Origin',(-0.875,0.,-3.7));
#1746=CARTESIAN_POINT('',(-1.375,0.,-3.7));
#1747=CARTESIAN_POINT('Origin',(-1.375,0.,-3.7));
#1748=CARTESIAN_POINT('',(-1.375,0.,-3.2));
#1749=CARTESIAN_POINT('Origin',(-1.375,0.,-3.2));
#1750=CARTESIAN_POINT('',(-1.875,0.,-3.2));
#1751=CARTESIAN_POINT('Origin',(-1.875,0.,-3.2));
#1752=CARTESIAN_POINT('',(-1.875,0.,-2.7));
#1753=CARTESIAN_POINT('Origin',(-1.875,0.,-2.7));
#1754=CARTESIAN_POINT('',(-1.375,0.,-2.7));
#1755=CARTESIAN_POINT('Origin',(-0.375,0.,-3.2));
#1756=CARTESIAN_POINT('',(-0.375,0.,-3.2));
#1757=CARTESIAN_POINT('Origin',(-0.375,0.,-2.7));
#1758=CARTESIAN_POINT('',(-0.375,0.,-2.7));
#1759=CARTESIAN_POINT('Origin',(-0.875,0.,-2.7));
#1760=CARTESIAN_POINT('',(-0.875,0.,-2.7));
#1761=CARTESIAN_POINT('Origin',(-0.875,0.,-2.2));
#1762=CARTESIAN_POINT('',(-0.875,0.,-2.2));
#1763=CARTESIAN_POINT('Origin',(-1.375,0.,-2.2));
#1764=CARTESIAN_POINT('',(-1.375,0.,-2.2));
#1765=CARTESIAN_POINT('Origin',(-1.375,0.,-2.7));
#1766=CARTESIAN_POINT('Origin',(-2.52517737625956E-16,0.3,0.));
#1767=CARTESIAN_POINT('Origin',(-2.52517737625956E-16,1.3,0.));
#1768=CARTESIAN_POINT('',(4.47213595499958,1.3,5.47678698264203E-16));
#1769=CARTESIAN_POINT('Origin',(0.,1.3,0.));
#1770=CARTESIAN_POINT('Origin',(0.,0.,0.));
#1771=CARTESIAN_POINT('',(4.47213595499958,4.5,5.47678698264203E-16));
#1772=CARTESIAN_POINT('',(4.47213595499958,0.,-5.47678698264203E-16));
#1773=CARTESIAN_POINT('Origin',(0.,4.5,0.));
#1774=CARTESIAN_POINT('Origin',(-2.52517737625956E-16,4.5,0.));
#1775=CARTESIAN_POINT('',(-0.2,4.5,2.44929359829471E-17));
#1776=CARTESIAN_POINT('Origin',(0.,4.5,0.));
#1777=CARTESIAN_POINT('',(-0.95,4.5,2.44929359829471E-17));
#1778=CARTESIAN_POINT('Origin',(-0.75,4.5,0.));
#1779=CARTESIAN_POINT('',(-1.8,4.5,2.44929359829471E-17));
#1780=CARTESIAN_POINT('Origin',(-1.6,4.5,0.));
#1781=CARTESIAN_POINT('',(-1.5856406460551,4.5,0.8));
#1782=CARTESIAN_POINT('Origin',(-1.3856406460551,4.5,0.8));
#1783=CARTESIAN_POINT('',(-1.,4.5,1.3856406460551));
#1784=CARTESIAN_POINT('Origin',(-0.8,4.5,1.3856406460551));
#1785=CARTESIAN_POINT('',(-0.2,4.5,1.6));
#1786=CARTESIAN_POINT('Origin',(-9.79717439317883E-17,4.5,1.6));
#1787=CARTESIAN_POINT('',(0.6,4.5,1.3856406460551));
#1788=CARTESIAN_POINT('Origin',(0.8,4.5,1.3856406460551));
#1789=CARTESIAN_POINT('',(1.1856406460551,4.5,0.800000000000001));
#1790=CARTESIAN_POINT('Origin',(1.3856406460551,4.5,0.800000000000001));
#1791=CARTESIAN_POINT('',(1.4,4.5,2.20436423846524E-16));
#1792=CARTESIAN_POINT('Origin',(1.6,4.5,1.95943487863577E-16));
#1793=CARTESIAN_POINT('',(1.1856406460551,4.5,-0.8));
#1794=CARTESIAN_POINT('Origin',(1.3856406460551,4.5,-0.8));
#1795=CARTESIAN_POINT('',(0.600000000000001,4.5,-1.3856406460551));
#1796=CARTESIAN_POINT('Origin',(0.800000000000001,4.5,-1.3856406460551));
#1797=CARTESIAN_POINT('',(-0.2,4.5,-1.6));
#1798=CARTESIAN_POINT('Origin',(2.93915231795365E-16,4.5,-1.6));
#1799=CARTESIAN_POINT('',(-0.999999999999999,4.5,-1.3856406460551));
#1800=CARTESIAN_POINT('Origin',(-0.799999999999999,4.5,-1.3856406460551));
#1801=CARTESIAN_POINT('',(-1.5856406460551,4.5,-0.800000000000001));
#1802=CARTESIAN_POINT('Origin',(-1.3856406460551,4.5,-0.800000000000001));
#1803=CARTESIAN_POINT('',(-0.575,4.5,0.649519052838329));
#1804=CARTESIAN_POINT('Origin',(-0.375,4.5,0.649519052838329));
#1805=CARTESIAN_POINT('',(0.175,4.5,0.649519052838329));
#1806=CARTESIAN_POINT('Origin',(0.375,4.5,0.649519052838329));
#1807=CARTESIAN_POINT('',(0.55,4.5,1.16341445918999E-16));
#1808=CARTESIAN_POINT('Origin',(0.75,4.5,9.18485099360515E-17));
#1809=CARTESIAN_POINT('',(0.175,4.5,-0.649519052838329));
#1810=CARTESIAN_POINT('Origin',(0.375,4.5,-0.649519052838329));
#1811=CARTESIAN_POINT('',(-0.575,4.5,-0.649519052838329));
#1812=CARTESIAN_POINT('Origin',(-0.375,4.5,-0.649519052838329));
#1813=CARTESIAN_POINT('Origin',(0.,4.5,0.));
#1814=CARTESIAN_POINT('',(-5.32721357629099E-16,5.,-4.35));
#1815=CARTESIAN_POINT('Origin',(0.,5.,0.));
#1816=CARTESIAN_POINT('Origin',(-5.32721357629099E-16,4.5,-4.35));
#1817=CARTESIAN_POINT('Origin',(2.40256111332404E-16,5.,0.));
#1818=CARTESIAN_POINT('',(-0.2,5.,2.44929359829471E-17));
#1819=CARTESIAN_POINT('Origin',(0.,5.,0.));
#1820=CARTESIAN_POINT('',(-0.95,5.,2.44929359829471E-17));
#1821=CARTESIAN_POINT('Origin',(-0.75,5.,0.));
#1822=CARTESIAN_POINT('',(-1.8,5.,2.44929359829471E-17));
#1823=CARTESIAN_POINT('Origin',(-1.6,5.,0.));
#1824=CARTESIAN_POINT('',(-1.5856406460551,5.,0.8));
#1825=CARTESIAN_POINT('Origin',(-1.3856406460551,5.,0.8));
#1826=CARTESIAN_POINT('',(-1.,5.,1.3856406460551));
#1827=CARTESIAN_POINT('Origin',(-0.8,5.,1.3856406460551));
#1828=CARTESIAN_POINT('',(-0.2,5.,1.6));
#1829=CARTESIAN_POINT('Origin',(-9.79717439317883E-17,5.,1.6));
#1830=CARTESIAN_POINT('',(0.6,5.,1.3856406460551));
#1831=CARTESIAN_POINT('Origin',(0.8,5.,1.3856406460551));
#1832=CARTESIAN_POINT('',(1.1856406460551,5.,0.800000000000001));
#1833=CARTESIAN_POINT('Origin',(1.3856406460551,5.,0.800000000000001));
#1834=CARTESIAN_POINT('',(1.4,5.,2.20436423846524E-16));
#1835=CARTESIAN_POINT('Origin',(1.6,5.,1.95943487863577E-16));
#1836=CARTESIAN_POINT('',(1.1856406460551,5.,-0.8));
#1837=CARTESIAN_POINT('Origin',(1.3856406460551,5.,-0.8));
#1838=CARTESIAN_POINT('',(0.600000000000001,5.,-1.3856406460551));
#1839=CARTESIAN_POINT('Origin',(0.800000000000001,5.,-1.3856406460551));
#1840=CARTESIAN_POINT('',(-0.2,5.,-1.6));
#1841=CARTESIAN_POINT('Origin',(2.93915231795365E-16,5.,-1.6));
#1842=CARTESIAN_POINT('',(-0.999999999999999,5.,-1.3856406460551));
#1843=CARTESIAN_POINT('Origin',(-0.799999999999999,5.,-1.3856406460551));
#1844=CARTESIAN_POINT('',(-1.5856406460551,5.,-0.800000000000001));
#1845=CARTESIAN_POINT('Origin',(-1.3856406460551,5.,-0.800000000000001));
#1846=CARTESIAN_POINT('',(-0.575,5.,0.649519052838329));
#1847=CARTESIAN_POINT('Origin',(-0.375,5.,0.649519052838329));
#1848=CARTESIAN_POINT('',(0.175,5.,0.649519052838329));
#1849=CARTESIAN_POINT('Origin',(0.375,5.,0.649519052838329));
#1850=CARTESIAN_POINT('',(0.55,5.,1.16341445918999E-16));
#1851=CARTESIAN_POINT('Origin',(0.75,5.,9.18485099360515E-17));
#1852=CARTESIAN_POINT('',(0.175,5.,-0.649519052838329));
#1853=CARTESIAN_POINT('Origin',(0.375,5.,-0.649519052838329));
#1854=CARTESIAN_POINT('',(-0.575,5.,-0.649519052838329));
#1855=CARTESIAN_POINT('Origin',(-0.375,5.,-0.649519052838329));
#1856=CARTESIAN_POINT('Origin',(-0.375,0.,-0.649519052838329));
#1857=CARTESIAN_POINT('',(-0.575,0.,-0.649519052838329));
#1858=CARTESIAN_POINT('Origin',(0.375,0.,-0.649519052838329));
#1859=CARTESIAN_POINT('',(0.175,0.,-0.649519052838329));
#1860=CARTESIAN_POINT('Origin',(0.75,0.,9.18485099360515E-17));
#1861=CARTESIAN_POINT('',(0.55,0.,1.16341445918999E-16));
#1862=CARTESIAN_POINT('Origin',(0.375,0.,0.649519052838329));
#1863=CARTESIAN_POINT('',(0.175,0.,0.649519052838329));
#1864=CARTESIAN_POINT('Origin',(-0.375,0.,0.649519052838329));
#1865=CARTESIAN_POINT('',(-0.575,0.,0.649519052838329));
#1866=CARTESIAN_POINT('Origin',(-1.3856406460551,0.,-0.800000000000001));
#1867=CARTESIAN_POINT('',(-1.5856406460551,0.,-0.800000000000001));
#1868=CARTESIAN_POINT('Origin',(-0.799999999999999,0.,-1.3856406460551));
#1869=CARTESIAN_POINT('',(-0.999999999999999,0.,-1.3856406460551));
#1870=CARTESIAN_POINT('Origin',(2.93915231795365E-16,0.,-1.6));
#1871=CARTESIAN_POINT('',(-0.2,0.,-1.6));
#1872=CARTESIAN_POINT('Origin',(0.800000000000001,0.,-1.3856406460551));
#1873=CARTESIAN_POINT('',(0.600000000000001,0.,-1.3856406460551));
#1874=CARTESIAN_POINT('Origin',(1.3856406460551,0.,-0.8));
#1875=CARTESIAN_POINT('',(1.1856406460551,0.,-0.8));
#1876=CARTESIAN_POINT('Origin',(1.6,0.,1.95943487863577E-16));
#1877=CARTESIAN_POINT('',(1.4,0.,2.20436423846524E-16));
#1878=CARTESIAN_POINT('Origin',(1.3856406460551,0.,0.800000000000001));
#1879=CARTESIAN_POINT('',(1.1856406460551,0.,0.800000000000001));
#1880=CARTESIAN_POINT('Origin',(0.8,0.,1.3856406460551));
#1881=CARTESIAN_POINT('',(0.6,0.,1.3856406460551));
#1882=CARTESIAN_POINT('Origin',(-9.79717439317883E-17,0.,1.6));
#1883=CARTESIAN_POINT('',(-0.2,0.,1.6));
#1884=CARTESIAN_POINT('Origin',(-0.8,0.,1.3856406460551));
#1885=CARTESIAN_POINT('',(-1.,0.,1.3856406460551));
#1886=CARTESIAN_POINT('Origin',(-1.3856406460551,0.,0.8));
#1887=CARTESIAN_POINT('',(-1.5856406460551,0.,0.8));
#1888=CARTESIAN_POINT('Origin',(-1.6,0.,0.));
#1889=CARTESIAN_POINT('',(-1.8,0.,2.44929359829471E-17));
#1890=CARTESIAN_POINT('Origin',(-0.75,0.,0.));
#1891=CARTESIAN_POINT('',(-0.95,0.,2.44929359829471E-17));
#1892=CARTESIAN_POINT('Origin',(0.,0.,0.));
#1893=CARTESIAN_POINT('',(-0.2,0.,2.44929359829471E-17));
#1894=CARTESIAN_POINT('Origin',(0.,5.,0.));
#1895=CARTESIAN_POINT('',(4.35,5.25,-5.32721357629099E-16));
#1896=CARTESIAN_POINT('Origin',(0.,5.25,0.));
#1897=CARTESIAN_POINT('',(4.35,5.,-5.32721357629099E-16));
#1898=CARTESIAN_POINT('',(4.35,5.,-5.32721357629099E-16));
#1899=CARTESIAN_POINT('Origin',(0.,5.,0.));
#1900=CARTESIAN_POINT('Origin',(-2.57079849653988E-16,5.,0.));
#1901=CARTESIAN_POINT('Origin',(-2.57079849653988E-16,5.25,0.));
#1902=UNCERTAINTY_MEASURE_WITH_UNIT(LENGTH_MEASURE(0.01),#1906,
'DISTANCE_ACCURACY_VALUE',
'Maximum model space distance between geometric entities at asserted c
onnectivities');
#1903=UNCERTAINTY_MEASURE_WITH_UNIT(LENGTH_MEASURE(0.01),#1906,
'DISTANCE_ACCURACY_VALUE',
'Maximum model space distance between geometric entities at asserted c
onnectivities');
#1904=(
GEOMETRIC_REPRESENTATION_CONTEXT(3)
GLOBAL_UNCERTAINTY_ASSIGNED_CONTEXT((#1902))
GLOBAL_UNIT_ASSIGNED_CONTEXT((#1906,#1908,#1909))
REPRESENTATION_CONTEXT('','3D')
);
#1905=(
GEOMETRIC_REPRESENTATION_CONTEXT(3)
GLOBAL_UNCERTAINTY_ASSIGNED_CONTEXT((#1903))
GLOBAL_UNIT_ASSIGNED_CONTEXT((#1906,#1908,#1909))
REPRESENTATION_CONTEXT('','3D')
);
#1906=(
LENGTH_UNIT()
NAMED_UNIT(*)
SI_UNIT(.MILLI.,.METRE.)
);
#1907=(
LENGTH_UNIT()
NAMED_UNIT(*)
SI_UNIT(.CENTI.,.METRE.)
);
#1908=(
NAMED_UNIT(*)
PLANE_ANGLE_UNIT()
SI_UNIT($,.RADIAN.)
);
#1909=(
NAMED_UNIT(*)
SI_UNIT($,.STERADIAN.)
SOLID_ANGLE_UNIT()
);
#1910=SHAPE_DEFINITION_REPRESENTATION(#1911,#1912);
#1911=PRODUCT_DEFINITION_SHAPE('',$,#1914);
#1912=SHAPE_REPRESENTATION('',(#1130),#1904);
#1913=PRODUCT_DEFINITION_CONTEXT('part definition',#1918,'design');
#1914=PRODUCT_DEFINITION('AOM-5024L-HD-F-R','AOM-5024L-HD-F-R',#1915,#1913);
#1915=PRODUCT_DEFINITION_FORMATION('',$,#1920);
#1916=PRODUCT_RELATED_PRODUCT_CATEGORY('AOM-5024L-HD-F-R',
'AOM-5024L-HD-F-R',(#1920));
#1917=APPLICATION_PROTOCOL_DEFINITION('international standard',
'automotive_design',2009,#1918);
#1918=APPLICATION_CONTEXT(
'Core Data for Automotive Mechanical Design Process');
#1919=PRODUCT_CONTEXT('part definition',#1918,'mechanical');
#1920=PRODUCT('AOM-5024L-HD-F-R','AOM-5024L-HD-F-R',$,(#1919));
#1921=PRESENTATION_STYLE_ASSIGNMENT((#1928));
#1922=PRESENTATION_STYLE_ASSIGNMENT((#1929));
#1923=PRESENTATION_STYLE_ASSIGNMENT((#1930));
#1924=PRESENTATION_STYLE_ASSIGNMENT((#1931));
#1925=PRESENTATION_STYLE_ASSIGNMENT((#1932));
#1926=PRESENTATION_STYLE_ASSIGNMENT((#1933));
#1927=PRESENTATION_STYLE_ASSIGNMENT((#1934));
#1928=SURFACE_STYLE_USAGE(.BOTH.,#1949);
#1929=SURFACE_STYLE_USAGE(.BOTH.,#1950);
#1930=SURFACE_STYLE_USAGE(.BOTH.,#1951);
#1931=SURFACE_STYLE_USAGE(.BOTH.,#1952);
#1932=SURFACE_STYLE_USAGE(.BOTH.,#1953);
#1933=SURFACE_STYLE_USAGE(.BOTH.,#1954);
#1934=SURFACE_STYLE_USAGE(.BOTH.,#1955);
#1935=SURFACE_STYLE_RENDERING_WITH_PROPERTIES($,#1977,(#1942));
#1936=SURFACE_STYLE_RENDERING_WITH_PROPERTIES($,#1978,(#1943));
#1937=SURFACE_STYLE_RENDERING_WITH_PROPERTIES($,#1979,(#1944));
#1938=SURFACE_STYLE_RENDERING_WITH_PROPERTIES($,#1980,(#1945));
#1939=SURFACE_STYLE_RENDERING_WITH_PROPERTIES($,#1981,(#1946));
#1940=SURFACE_STYLE_RENDERING_WITH_PROPERTIES($,#1982,(#1947));
#1941=SURFACE_STYLE_RENDERING_WITH_PROPERTIES($,#1983,(#1948));
#1942=SURFACE_STYLE_TRANSPARENT(0.);
#1943=SURFACE_STYLE_TRANSPARENT(0.);
#1944=SURFACE_STYLE_TRANSPARENT(0.);
#1945=SURFACE_STYLE_TRANSPARENT(0.);
#1946=SURFACE_STYLE_TRANSPARENT(0.);
#1947=SURFACE_STYLE_TRANSPARENT(0.);
#1948=SURFACE_STYLE_TRANSPARENT(0.);
#1949=SURFACE_SIDE_STYLE('',(#1956,#1935));
#1950=SURFACE_SIDE_STYLE('',(#1957,#1936));
#1951=SURFACE_SIDE_STYLE('',(#1958,#1937));
#1952=SURFACE_SIDE_STYLE('',(#1959,#1938));
#1953=SURFACE_SIDE_STYLE('',(#1960,#1939));
#1954=SURFACE_SIDE_STYLE('',(#1961,#1940));
#1955=SURFACE_SIDE_STYLE('',(#1962,#1941));
#1956=SURFACE_STYLE_FILL_AREA(#1963);
#1957=SURFACE_STYLE_FILL_AREA(#1964);
#1958=SURFACE_STYLE_FILL_AREA(#1965);
#1959=SURFACE_STYLE_FILL_AREA(#1966);
#1960=SURFACE_STYLE_FILL_AREA(#1967);
#1961=SURFACE_STYLE_FILL_AREA(#1968);
#1962=SURFACE_STYLE_FILL_AREA(#1969);
#1963=FILL_AREA_STYLE('',(#1970));
#1964=FILL_AREA_STYLE('',(#1971));
#1965=FILL_AREA_STYLE('',(#1972));
#1966=FILL_AREA_STYLE('',(#1973));
#1967=FILL_AREA_STYLE('',(#1974));
#1968=FILL_AREA_STYLE('',(#1975));
#1969=FILL_AREA_STYLE('',(#1976));
#1970=FILL_AREA_STYLE_COLOUR('',#1977);
#1971=FILL_AREA_STYLE_COLOUR('',#1978);
#1972=FILL_AREA_STYLE_COLOUR('',#1979);
#1973=FILL_AREA_STYLE_COLOUR('',#1980);
#1974=FILL_AREA_STYLE_COLOUR('',#1981);
#1975=FILL_AREA_STYLE_COLOUR('',#1982);
#1976=FILL_AREA_STYLE_COLOUR('',#1983);
#1977=COLOUR_RGB('',0.749019607843137,0.749019607843137,0.749019607843137);
#1978=COLOUR_RGB('',0.956862745098039,0.956862745098039,0.956862745098039);
#1979=COLOUR_RGB('',1.,0.996078431372549,0.964705882352941);
#1980=COLOUR_RGB('',0.450980392156863,0.580392156862745,0.250980392156863);
#1981=COLOUR_RGB('',0.949019607843137,0.898039215686275,0.72156862745098);
#1982=COLOUR_RGB('',0.701960784313725,0.552941176470588,0.00392156862745098);
#1983=COLOUR_RGB('',0.,0.,0.);
ENDSEC;
END-ISO-10303-21;
